<svg width="16" height="16" viewBox="0 0 16 16" fill="none" xmlns="http://www.w3.org/2000/svg">
<path d="M5.33325 3.83301C5.05992 3.83301 4.83325 3.60634 4.83325 3.33301V1.33301C4.83325 1.05967 5.05992 0.833008 5.33325 0.833008C5.60659 0.833008 5.83325 1.05967 5.83325 1.33301V3.33301C5.83325 3.60634 5.60659 3.83301 5.33325 3.83301Z" fill="#0161FA"/>
<path d="M10.6667 3.83301C10.3934 3.83301 10.1667 3.60634 10.1667 3.33301V1.33301C10.1667 1.05967 10.3934 0.833008 10.6667 0.833008C10.9401 0.833008 11.1667 1.05967 11.1667 1.33301V3.33301C11.1667 3.60634 10.9401 3.83301 10.6667 3.83301Z" fill="#0161FA"/>
<path d="M5.66667 9.66655C5.58 9.66655 5.49333 9.64656 5.41333 9.61322C5.32667 9.57989 5.26 9.53321 5.19333 9.47321C5.07333 9.34654 5 9.17988 5 8.99988C5 8.91322 5.02 8.82655 5.05333 8.74655C5.08667 8.66655 5.13333 8.59322 5.19333 8.52655C5.26 8.46655 5.32667 8.41987 5.41333 8.38654C5.65333 8.28654 5.95333 8.33989 6.14 8.52655C6.26 8.65322 6.33333 8.82655 6.33333 8.99988C6.33333 9.03988 6.32667 9.08656 6.32 9.13322C6.31333 9.17322 6.3 9.21322 6.28 9.25322C6.26667 9.29322 6.24667 9.33321 6.22 9.37321C6.2 9.40655 6.16667 9.43988 6.14 9.47321C6.01333 9.59321 5.84 9.66655 5.66667 9.66655Z" fill="#0161FA"/>
<path d="M7.99992 9.66658C7.91325 9.66658 7.82658 9.64659 7.74658 9.61326C7.65992 9.57992 7.59325 9.53324 7.52659 9.47324C7.40659 9.34658 7.33325 9.17992 7.33325 8.99992C7.33325 8.91325 7.35325 8.82658 7.38659 8.74658C7.41992 8.66658 7.46659 8.59325 7.52659 8.52659C7.59325 8.46659 7.65992 8.41991 7.74658 8.38657C7.98658 8.27991 8.28658 8.33992 8.47325 8.52659C8.59325 8.65325 8.66659 8.82658 8.66659 8.99992C8.66659 9.03992 8.65992 9.08659 8.65325 9.13326C8.64659 9.17326 8.63325 9.21325 8.61325 9.25325C8.59992 9.29325 8.57992 9.33325 8.55325 9.37325C8.53325 9.40658 8.49992 9.43991 8.47325 9.47324C8.34658 9.59324 8.17325 9.66658 7.99992 9.66658Z" fill="#0161FA"/>
<path d="M10.3334 9.66658C10.2467 9.66658 10.1601 9.64659 10.0801 9.61326C9.99341 9.57992 9.92675 9.53324 9.86008 9.47324C9.83342 9.43991 9.80675 9.40658 9.78008 9.37325C9.75341 9.33325 9.73342 9.29325 9.72008 9.25325C9.70008 9.21325 9.68675 9.17326 9.68008 9.13326C9.67342 9.08659 9.66675 9.03992 9.66675 8.99992C9.66675 8.82658 9.74008 8.65325 9.86008 8.52659C9.92675 8.46659 9.99341 8.41991 10.0801 8.38657C10.3267 8.27991 10.6201 8.33992 10.8067 8.52659C10.9267 8.65325 11.0001 8.82658 11.0001 8.99992C11.0001 9.03992 10.9934 9.08659 10.9867 9.13326C10.9801 9.17326 10.9667 9.21325 10.9467 9.25325C10.9334 9.29325 10.9134 9.33325 10.8867 9.37325C10.8667 9.40658 10.8334 9.43991 10.8067 9.47324C10.6801 9.59324 10.5067 9.66658 10.3334 9.66658Z" fill="#0161FA"/>
<path d="M5.66667 11.9998C5.58 11.9998 5.49333 11.9798 5.41333 11.9465C5.33333 11.9131 5.26 11.8665 5.19333 11.8065C5.07333 11.6798 5 11.5065 5 11.3331C5 11.2465 5.02 11.1598 5.05333 11.0798C5.08667 10.9931 5.13333 10.9198 5.19333 10.8598C5.44 10.6131 5.89333 10.6131 6.14 10.8598C6.26 10.9865 6.33333 11.1598 6.33333 11.3331C6.33333 11.5065 6.26 11.6798 6.14 11.8065C6.01333 11.9265 5.84 11.9998 5.66667 11.9998Z" fill="#0161FA"/>
<path d="M7.99992 11.9998C7.82659 11.9998 7.65325 11.9265 7.52659 11.8065C7.40659 11.6798 7.33325 11.5065 7.33325 11.3331C7.33325 11.2465 7.35325 11.1598 7.38659 11.0798C7.41992 10.9931 7.46659 10.9198 7.52659 10.8598C7.77325 10.6131 8.22658 10.6131 8.47325 10.8598C8.53325 10.9198 8.57992 10.9931 8.61325 11.0798C8.64658 11.1598 8.66659 11.2465 8.66659 11.3331C8.66659 11.5065 8.59325 11.6798 8.47325 11.8065C8.34658 11.9265 8.17325 11.9998 7.99992 11.9998Z" fill="#0161FA"/>
<path d="M10.3334 11.9999C10.1601 11.9999 9.98675 11.9266 9.86008 11.8066C9.80008 11.7466 9.75342 11.6733 9.72008 11.5866C9.68675 11.5066 9.66675 11.4199 9.66675 11.3333C9.66675 11.2466 9.68675 11.1599 9.72008 11.0799C9.75342 10.9933 9.80008 10.9199 9.86008 10.8599C10.0134 10.7066 10.2467 10.6333 10.4601 10.6799C10.5067 10.6866 10.5467 10.6999 10.5867 10.7199C10.6267 10.7333 10.6667 10.7533 10.7067 10.78C10.7401 10.8 10.7734 10.8333 10.8067 10.8599C10.9267 10.9866 11.0001 11.1599 11.0001 11.3333C11.0001 11.5066 10.9267 11.6799 10.8067 11.8066C10.6801 11.9266 10.5067 11.9999 10.3334 11.9999Z" fill="#0161FA"/>
<path d="M13.6666 6.55957H2.33325C2.05992 6.55957 1.83325 6.3329 1.83325 6.05957C1.83325 5.78624 2.05992 5.55957 2.33325 5.55957H13.6666C13.9399 5.55957 14.1666 5.78624 14.1666 6.05957C14.1666 6.3329 13.9399 6.55957 13.6666 6.55957Z" fill="#0161FA"/>
<path d="M10.6667 15.1663H5.33333C2.9 15.1663 1.5 13.7663 1.5 11.333V5.66634C1.5 3.23301 2.9 1.83301 5.33333 1.83301H10.6667C13.1 1.83301 14.5 3.23301 14.5 5.66634V11.333C14.5 13.7663 13.1 15.1663 10.6667 15.1663ZM5.33333 2.83301C3.42667 2.83301 2.5 3.75967 2.5 5.66634V11.333C2.5 13.2397 3.42667 14.1663 5.33333 14.1663H10.6667C12.5733 14.1663 13.5 13.2397 13.5 11.333V5.66634C13.5 3.75967 12.5733 2.83301 10.6667 2.83301H5.33333Z" fill="#0161FA"/>
</svg>
