<svg width="24" height="24" viewBox="0 0 24 24" fill="none" xmlns="http://www.w3.org/2000/svg">
<path fill-rule="evenodd" clip-rule="evenodd" d="M11.2267 17.5C11.2267 17.7733 11.4534 18 11.7267 18C12.0001 18 12.2267 17.7733 12.2267 17.5V17.1134H12.66C13.6467 17.1134 14.4467 16.28 14.4533 15.26C14.4533 14.0667 13.7533 13.68 13.2333 13.5L12.2267 13.1454V10.8867H12.4667C13.0067 10.8867 13.4467 11.36 13.4467 11.94C13.4467 12.2134 13.6733 12.44 13.9467 12.44C14.22 12.44 14.4467 12.2134 14.4467 11.94C14.4467 10.8067 13.56 9.88671 12.4667 9.88671H12.2267V9.5C12.2267 9.22667 12.0001 9 11.7267 9C11.4534 9 11.2267 9.22667 11.2267 9.5V9.88671H10.7933C9.80667 9.88671 9 10.7134 9 11.74C9 12.9334 9.7 13.32 10.22 13.5L11.2267 13.8548V16.1134H10.9867C10.4467 16.1134 10.0067 15.64 10.0067 15.06C10.0067 14.7867 9.78 14.56 9.50667 14.56C9.23333 14.56 9.00667 14.7867 9.00667 15.06C9.00667 16.1934 9.89333 17.1134 10.9867 17.1134H11.2267V17.5ZM11.2267 12.793V10.8867H10.7933C10.36 10.8867 10 11.2734 10 11.74C10 12.32 10.2067 12.4334 10.5467 12.5534L11.2267 12.793ZM12.2267 14.2071V16.1134H12.66C13.0933 16.1134 13.4533 15.7267 13.4533 15.26C13.4533 14.68 13.2467 14.5667 12.9067 14.4467L12.2267 14.2071Z" fill="#1A1A1A"/>
<path d="M14 6.75H10C9.04 6.75 7.25 6.75 7.25 4C7.25 1.25 9.04 1.25 10 1.25H14C14.96 1.25 16.75 1.25 16.75 4C16.75 4.96 16.75 6.75 14 6.75ZM10 2.75C9.01 2.75 8.75 2.75 8.75 4C8.75 5.25 9.01 5.25 10 5.25H14C15.25 5.25 15.25 4.99 15.25 4C15.25 2.75 14.99 2.75 14 2.75H10Z" fill="#1A1A1A"/>
<path d="M14.75 22.4809H8.75C3.13 22.4809 2 19.9009 2 15.7309V9.73089C2 5.17089 3.65 3.22089 7.71 3.01089C8.12 2.99089 8.48 3.30089 8.5 3.72089C8.52 4.14089 8.2 4.48089 7.79 4.50089C4.95 4.66089 3.5 5.51089 3.5 9.73089V15.7309C3.5 19.4309 4.23 20.9809 8.75 20.9809H14.75C19.27 20.9809 20 19.4309 20 15.7309V9.73089C20 5.51089 18.55 4.66089 15.71 4.50089C15.3 4.48089 14.98 4.12089 15 3.71089C15.02 3.30089 15.37 2.98089 15.79 3.00089C19.85 3.22089 21.5 5.17089 21.5 9.72089V15.7209C21.5 19.9009 20.37 22.4809 14.75 22.4809Z" fill="#1A1A1A"/>
</svg>
