<svg width="40" height="40" viewBox="0 0 40 40" fill="none" xmlns="http://www.w3.org/2000/svg">
<path d="M20 37.9168C10.1167 37.9168 2.08337 29.8835 2.08337 20.0002C2.08337 10.1168 10.1167 2.0835 20 2.0835C29.8834 2.0835 37.9167 10.1168 37.9167 20.0002C37.9167 29.8835 29.8834 37.9168 20 37.9168ZM20 4.5835C11.5 4.5835 4.58337 11.5002 4.58337 20.0002C4.58337 28.5002 11.5 35.4168 20 35.4168C28.5 35.4168 35.4167 28.5002 35.4167 20.0002C35.4167 11.5002 28.5 4.5835 20 4.5835Z" fill="white"/>
<path d="M15.2833 25.9668C14.9666 25.9668 14.65 25.8501 14.4 25.6001C13.9166 25.1168 13.9166 24.3168 14.4 23.8334L23.8333 14.4001C24.3166 13.9168 25.1166 13.9168 25.6 14.4001C26.0833 14.8834 26.0833 15.6834 25.6 16.1668L16.1666 25.6001C15.9333 25.8501 15.6 25.9668 15.2833 25.9668Z" fill="white"/>
<path d="M24.7166 25.9668C24.4 25.9668 24.0833 25.8501 23.8333 25.6001L14.4 16.1668C13.9166 15.6834 13.9166 14.8834 14.4 14.4001C14.8833 13.9168 15.6833 13.9168 16.1666 14.4001L25.6 23.8334C26.0833 24.3168 26.0833 25.1168 25.6 25.6001C25.35 25.8501 25.0333 25.9668 24.7166 25.9668Z" fill="white"/>
</svg>
