<svg width="18" height="18" viewBox="0 0 18 18" fill="none" xmlns="http://www.w3.org/2000/svg">
<path d="M16.1426 11.9931C16.1426 14.5931 14.5926 16.1431 11.9926 16.1431H11.1426C10.7498 16.1431 10.4284 15.8217 10.4284 15.4288V11.3074C10.4284 11.1146 10.5855 10.9503 10.7784 10.9503L12.0355 10.9289C12.1355 10.9217 12.2212 10.8503 12.2427 10.7503L12.4927 9.386C12.5141 9.25743 12.4141 9.13599 12.2784 9.13599L10.7569 9.15742C10.5569 9.15742 10.3998 9.00029 10.3927 8.80743L10.3641 7.05742C10.3641 6.94313 10.4569 6.84314 10.5784 6.84314L12.2926 6.81457C12.4141 6.81457 12.5069 6.72172 12.5069 6.60029L12.4784 4.88599C12.4784 4.76456 12.3855 4.67171 12.2641 4.67171L10.3355 4.70029C9.14979 4.72172 8.20694 5.69314 8.22837 6.87885L8.26408 8.84313C8.27122 9.04313 8.11408 9.20028 7.91408 9.20743L7.05693 9.22171C6.9355 9.22171 6.84266 9.31455 6.84266 9.43598L6.86408 10.7931C6.86408 10.9146 6.95693 11.0074 7.07836 11.0074L7.93551 10.9931C8.13551 10.9931 8.29264 11.1503 8.29978 11.3431L8.36407 15.4146C8.37121 15.8146 8.04978 16.1431 7.64978 16.1431H6.00693C3.40693 16.1431 1.85693 14.5931 1.85693 11.986L1.85693 6.00742C1.85693 3.40742 3.40693 1.85742 6.00693 1.85742L11.9926 1.85742C14.5926 1.85742 16.1426 3.40742 16.1426 6.00742V11.9931Z" fill="white"/>
</svg>
