<svg width="24" height="25" viewBox="0 0 24 25" fill="none" xmlns="http://www.w3.org/2000/svg">
<path d="M17 23.3262H7C2.59 23.3262 1.25 21.9862 1.25 17.5762V7.57617C1.25 3.16617 2.59 1.82617 7 1.82617H8.5C10.25 1.82617 10.8 2.39617 11.5 3.32617L13 5.32617C13.33 5.76617 13.38 5.82617 14 5.82617H17C21.41 5.82617 22.75 7.16617 22.75 11.5762V17.5762C22.75 21.9862 21.41 23.3262 17 23.3262ZM7 3.32617C3.42 3.32617 2.75 4.00617 2.75 7.57617V17.5762C2.75 21.1462 3.42 21.8262 7 21.8262H17C20.58 21.8262 21.25 21.1462 21.25 17.5762V11.5762C21.25 8.00617 20.58 7.32617 17 7.32617H14C12.72 7.32617 12.3 6.88617 11.8 6.22617L10.3 4.22617C9.78 3.53617 9.62 3.32617 8.5 3.32617H7Z" fill="#0161FA"/>
<path d="M20 7.70617C19.59 7.70617 19.25 7.36617 19.25 6.95617V5.57617C19.25 3.99617 18.58 3.32617 17 3.32617H8C7.59 3.32617 7.25 2.98617 7.25 2.57617C7.25 2.16617 7.59 1.82617 8 1.82617H17C19.42 1.82617 20.75 3.15617 20.75 5.57617V6.95617C20.75 7.36617 20.41 7.70617 20 7.70617Z" fill="#0161FA"/>
</svg>
