<svg width="55" height="58" viewBox="0 0 55 58" fill="none" xmlns="http://www.w3.org/2000/svg">
<g clip-path="url(#clip0_1418_22950)">
<path d="M53.5784 19.9609C53.5069 19.7707 53.3476 19.6205 53.1504 19.5585L29.9844 12.042C29.6789 11.9433 29.3446 12.0739 29.1848 12.3507L16.3687 34.6385C15.8233 34.0582 15.1741 33.5345 14.4362 33.1084C12.7175 32.1161 10.8101 31.7982 9.09397 32.1021C8.23591 32.254 7.4258 32.5696 6.71724 33.0344C6.00868 33.4992 5.40092 34.1258 4.95803 34.8929C4.51515 35.66 4.27918 36.4948 4.2281 37.3457C4.15429 38.6172 4.49137 39.9058 5.16766 41.0666C5.84395 42.2274 6.8574 43.2527 8.14399 43.9955C9.86754 44.9906 11.7749 45.3085 13.489 44.997C14.347 44.8451 15.1572 44.5295 15.8657 44.0647C16.5743 43.5999 17.182 42.9733 17.6249 42.2061L29.2577 22.0576L44.2219 26.9167L36.4517 40.3749C35.9064 39.7947 35.262 39.2738 34.5192 38.8449C32.8005 37.8526 30.8931 37.5347 29.1818 37.8413C28.3238 37.9933 27.5137 38.3089 26.8051 38.7737C26.0965 39.2385 25.4888 39.8651 25.0459 40.6322C24.603 41.3993 24.367 42.2341 24.316 43.085C24.2422 44.3565 24.5792 45.6451 25.2555 46.8059C25.9318 47.9667 26.9453 48.992 28.2319 49.7348C29.9554 50.7299 31.8579 51.045 33.5768 50.7363C34.4349 50.5844 35.245 50.2688 35.9536 49.804C36.6621 49.3391 37.2699 48.7125 37.7128 47.9454L53.5305 20.5483C53.6315 20.3735 53.6498 20.151 53.5784 19.9609Z" fill="url(#paint0_linear_1418_22950)"/>
<path d="M52.7041 17.8315C52.6326 17.6413 52.4734 17.4911 52.2761 17.4291L29.1102 9.91263C28.8046 9.81392 28.4703 9.94455 28.3105 10.2213L15.4944 32.5091C14.9491 31.9288 14.2999 31.4051 13.5619 30.979C11.8432 29.9867 9.93583 29.6688 8.2197 29.9727C7.36164 30.1246 6.55153 30.4402 5.84297 30.905C5.13441 31.3698 4.52665 31.9964 4.08377 32.7635C3.64088 33.5306 3.40491 34.3654 3.35383 35.2163C3.28003 36.4878 3.6171 37.7764 4.29339 38.9372C4.96968 40.098 5.98313 41.1233 7.26972 41.8661C8.99327 42.8612 10.9006 43.1792 12.6147 42.8676C13.4728 42.7157 14.2829 42.4001 14.9914 41.9353C15.7 41.4705 16.3078 40.8439 16.7506 40.0768L28.3834 19.9282L43.3476 24.7873L35.5775 38.2455C35.0321 37.6653 34.3877 37.1444 33.6449 36.7155C31.9262 35.7232 30.0188 35.4053 28.3076 35.712C27.4495 35.8639 26.6394 36.1795 25.9308 36.6443C25.2223 37.1091 24.6145 37.7357 24.1716 38.5028C23.7287 39.2699 23.4928 40.1047 23.4417 40.9556C23.3679 42.2271 23.705 43.5157 24.3813 44.6765C25.0575 45.8373 26.071 46.8626 27.3576 47.6054C29.0811 48.6005 30.9836 48.9156 32.7026 48.6069C33.5606 48.455 34.3707 48.1394 35.0793 47.6746C35.7879 47.2097 36.3956 46.5831 36.8385 45.816L52.6563 18.4189C52.7572 18.2441 52.7756 18.0216 52.7041 17.8315Z" fill="white" stroke="#1A1A1A" stroke-miterlimit="10" stroke-linecap="round"/>
<path d="M45.4954 19.9681L30.7479 15.1823L45.4954 19.9681Z" fill="white"/>
<path d="M45.4954 19.9681L30.7479 15.1823" stroke="#1A1A1A" stroke-miterlimit="10" stroke-linecap="round"/>
</g>
<defs>
<linearGradient id="paint0_linear_1418_22950" x1="12.7414" y1="21.4229" x2="42.9545" y2="38.8664" gradientUnits="userSpaceOnUse">
<stop stop-color="#2961F4"/>
<stop offset="1" stop-color="#5DC9DC"/>
</linearGradient>
<clipPath id="clip0_1418_22950">
<rect width="36.9894" height="45.365" fill="white" transform="translate(22.6825) rotate(30)"/>
</clipPath>
</defs>
</svg>
