<svg width="90" height="90" viewBox="0 0 90 90" fill="none" xmlns="http://www.w3.org/2000/svg">
<g clip-path="url(#clip0_1598_23551)">
<path d="M83.9561 2.94629H9.13239C5.79444 2.94629 3.0885 5.65666 3.0885 9.00007V83.9463C3.0885 87.2897 5.79444 90.0001 9.13239 90.0001H83.9561C87.2941 90.0001 90 87.2897 90 83.9463V9.00007C90 5.65666 87.2941 2.94629 83.9561 2.94629Z" fill="url(#paint0_radial_1598_23551)"/>
<path d="M80.7696 0.525879H6.71619C3.37824 0.525879 0.672302 3.23625 0.672302 6.57966V80.7543C0.672302 84.0977 3.37824 86.808 6.71619 86.808H80.7696C84.1075 86.808 86.8135 84.0977 86.8135 80.7543V6.57966C86.8135 3.23625 84.1075 0.525879 80.7696 0.525879Z" fill="white" stroke="#1A1A1A" stroke-width="1.5" stroke-miterlimit="10" stroke-linecap="round"/>
<g clip-path="url(#clip1_1598_23551)">
<path d="M61.3735 21.6883C61.1724 21.5291 60.9029 21.4654 60.6495 21.5171L30.4786 27.8726C30.0804 27.9562 29.7948 28.3064 29.7948 28.7083L29.8551 60.9312C28.8858 60.6407 27.848 60.4815 26.7661 60.4815C24.2521 60.4815 21.9554 61.3332 20.2701 62.738C19.4295 63.4424 18.7376 64.286 18.255 65.2411C17.7723 66.1923 17.5028 67.2509 17.5028 68.3572C17.5028 69.4635 17.7723 70.5221 18.255 71.4732C18.979 72.9019 20.1696 74.0878 21.6417 74.9235C23.1138 75.7553 24.8796 76.2368 26.762 76.2368C29.28 76.2368 31.5767 75.3852 33.258 73.9764C34.0986 73.272 34.7904 72.4283 35.2731 71.4732C35.7558 70.5221 36.0253 69.4635 36.0253 68.3572V39.2065L55.5171 35.0996V54.5758C54.5518 54.2853 53.51 54.1221 52.428 54.1221C49.9141 54.1221 47.6174 54.9737 45.9361 56.3785C45.0954 57.0829 44.4036 57.9306 43.9209 58.8817C43.4383 59.8329 43.1688 60.8914 43.1688 61.9978C43.1688 63.1041 43.4383 64.1627 43.9209 65.1138C44.645 66.5425 45.8315 67.7284 47.3077 68.5641C48.7798 69.3959 50.5416 69.8734 52.428 69.8774C54.9459 69.8774 57.2386 69.0258 58.9239 67.617C59.7646 66.9126 60.4564 66.0689 60.9391 65.1138C61.4218 64.1627 61.6913 63.1041 61.6913 61.9978V22.3529C61.6913 22.0982 61.5746 21.8514 61.3735 21.6883Z" fill="white" stroke="#1A1A1A" stroke-width="1.5" stroke-miterlimit="10" stroke-linecap="round"/>
<path d="M54.8212 28.5215L35.611 32.5688" stroke="url(#paint1_radial_1598_23551)" stroke-width="1.5" stroke-miterlimit="10" stroke-linecap="round"/>
</g>
<path d="M8.50906 4.60154C9.72764 4.60154 10.7151 5.59063 10.7151 6.8112C10.7151 8.03178 9.72764 9.02087 8.50906 9.02087C7.29048 9.02087 6.303 8.03178 6.303 6.8112C6.303 5.59063 7.29048 4.60154 8.50906 4.60154ZM8.50906 3.54932C6.7162 3.54932 5.2525 5.01541 5.2525 6.8112C5.2525 8.60699 6.7162 10.0731 8.50906 10.0731C10.3019 10.0731 11.7656 8.60699 11.7656 6.8112C11.7656 5.01541 10.3019 3.54932 8.50906 3.54932Z" fill="#1A1A1A"/>
<path d="M16.857 4.60154C18.0756 4.60154 19.0631 5.59063 19.0631 6.8112C19.0631 8.03178 18.0756 9.02087 16.857 9.02087C15.6384 9.02087 14.651 8.03178 14.651 6.8112C14.651 5.59063 15.6384 4.60154 16.857 4.60154ZM16.857 3.54932C15.0642 3.54932 13.6005 5.01541 13.6005 6.8112C13.6005 8.60699 15.0642 10.0731 16.857 10.0731C18.6499 10.0731 20.1136 8.60699 20.1136 6.8112C20.1136 5.01541 18.6499 3.54932 16.857 3.54932Z" fill="#1A1A1A"/>
<path d="M25.198 4.60154C26.4166 4.60154 27.4041 5.59063 27.4041 6.8112C27.4041 8.03178 26.4166 9.02087 25.198 9.02087C23.9794 9.02087 22.992 8.03178 22.992 6.8112C22.992 5.59063 23.9794 4.60154 25.198 4.60154ZM25.198 3.54932C23.4052 3.54932 21.9415 5.01541 21.9415 6.8112C21.9415 8.60699 23.4052 10.0731 25.198 10.0731C26.9909 10.0731 28.4546 8.60699 28.4546 6.8112C28.4546 5.01541 26.9909 3.54932 25.198 3.54932Z" fill="#1A1A1A"/>
<path d="M0.525269 14.1206H86.9536" stroke="#1A1A1A" stroke-width="1.5" stroke-miterlimit="10" stroke-linecap="round"/>
</g>
<defs>
<radialGradient id="paint0_radial_1598_23551" cx="0" cy="0" r="1" gradientUnits="userSpaceOnUse" gradientTransform="translate(90 2.94628) rotate(134.953) scale(123.012 116.518)">
<stop stop-color="#FEBE14"/>
<stop offset="1" stop-color="#EB2F2A"/>
</radialGradient>
<radialGradient id="paint1_radial_1598_23551" cx="0" cy="0" r="1" gradientUnits="userSpaceOnUse" gradientTransform="translate(54.8212 28.5215) rotate(168.103) scale(19.632 7.5025)">
<stop stop-color="#FEBE14"/>
<stop offset="1" stop-color="#EB2F2A"/>
</radialGradient>
<clipPath id="clip0_1598_23551">
<rect width="90" height="90" fill="white"/>
</clipPath>
<clipPath id="clip1_1598_23551">
<rect width="47" height="57" fill="white" transform="translate(17 21)"/>
</clipPath>
</defs>
</svg>
