<svg width="90" height="95" viewBox="0 0 90 95" fill="none" xmlns="http://www.w3.org/2000/svg">
<g clip-path="url(#clip0_1428_23165)">
<path d="M78.641 38.9497C78.3885 38.8039 78.077 38.7604 77.7925 38.8366L18.5737 54.7042C18.2892 54.7805 18.04 54.9692 17.8955 55.2264C17.751 55.4837 17.7061 55.7904 17.7823 56.0749L26.0858 87.0641C26.5089 88.6429 27.5387 89.9067 28.8492 90.6634C30.1598 91.42 31.7692 91.6799 33.348 91.2569L83.2739 77.8793C84.8528 77.4562 86.1166 76.4265 86.8732 75.1159C87.6299 73.8053 87.8898 72.1959 87.462 70.6184L79.1585 39.6292C79.0822 39.3447 78.8935 39.0955 78.6363 38.951L78.641 38.9497Z" fill="url(#paint0_linear_1428_23165)"/>
<path d="M74.7684 37.1467C74.516 37.001 74.2045 36.9574 73.92 37.0336L14.7011 52.9013C14.4167 52.9775 14.1674 53.1662 14.0229 53.4235C13.8784 53.6807 13.8335 53.9875 13.9098 54.2719L22.2133 85.2611C22.6363 86.8399 23.6661 88.1038 24.9767 88.8604C26.2872 89.6171 27.8966 89.8769 29.4755 89.4539L79.4014 76.0763C80.9802 75.6532 82.244 74.6235 83.0007 73.3129C83.7573 72.0024 84.0172 70.393 83.5894 68.8154L75.2859 37.8262C75.2097 37.5418 75.0209 37.2925 74.7637 37.148L74.7684 37.1467Z" fill="white" stroke="#1A1A1A" stroke-miterlimit="10"/>
<path d="M61.5916 60.5875C63.4006 67.3392 59.3953 74.2767 52.6436 76.0858C45.892 77.8949 38.9545 73.8895 37.1454 67.1379C35.3363 60.3863 39.3464 53.4475 46.0933 51.6396C52.8402 49.8318 59.7837 53.8407 61.5916 60.5875Z" fill="white"/>
<path d="M55.7019 52.9067C52.9004 51.2893 49.4704 50.7398 46.0993 51.6431C42.7282 52.5463 40.0325 54.7373 38.4151 57.5387C36.7976 60.3402 36.2481 63.7702 37.1514 67.1413C38.0547 70.5124 40.2456 73.2081 43.0471 74.8255C45.8485 76.4429 49.2786 76.9925 52.6496 76.0892C56.0207 75.1859 58.7164 72.995 60.3338 70.1935C61.9513 67.3921 62.5008 63.962 61.5975 60.591C60.6943 57.2199 58.5033 54.5242 55.7019 52.9067Z" stroke="#1A1A1A" stroke-miterlimit="10"/>
<path d="M28.034 40.075L22.2972 45.2354L15.3312 37.4823L21.0645 32.3278L28.034 40.075Z" fill="url(#paint1_linear_1428_23165)"/>
<path d="M39.5381 29.7357L33.8035 34.8854L26.8353 27.143L32.572 21.9826L39.5381 29.7357Z" fill="url(#paint2_linear_1428_23165)"/>
<path d="M51.0456 19.3905L45.3076 24.5462L38.3428 16.7978L44.0748 11.6386L51.0456 19.3905Z" fill="url(#paint3_linear_1428_23165)"/>
<path d="M46.3273 64.9165L45.8967 63.3092C45.3631 61.3178 46.5575 60.1238 48.5501 60.657L50.154 61.086L51.7579 61.5151C53.7505 62.0483 54.1876 63.6793 52.7285 65.1374L51.554 66.3109L50.3795 67.4845C48.9205 68.9426 47.2891 68.5057 46.7555 66.5143L46.3248 64.907L46.3273 64.9165Z" fill="url(#paint4_linear_1428_23165)" stroke="#1A1A1A" stroke-miterlimit="10"/>
<path d="M13.8601 52.7404L8.45809 46.7279C7.73368 45.9209 7.79733 44.6792 8.60432 43.9548L51.4349 5.44365C52.2419 4.71925 53.4837 4.78289 54.2081 5.58989L59.6148 11.6011L13.8601 52.7404Z" stroke="#1A1A1A" stroke-miterlimit="10"/>
</g>
<defs>
<linearGradient id="paint0_linear_1428_23165" x1="22.5579" y1="73.8975" x2="83.9388" y2="57.4505" gradientUnits="userSpaceOnUse">
<stop stop-color="#2961F4"/>
<stop offset="1" stop-color="#5DC9DC"/>
</linearGradient>
<linearGradient id="paint1_linear_1428_23165" x1="-6.59521" y1="82.9084" x2="52.8979" y2="-9.9394" gradientUnits="userSpaceOnUse">
<stop stop-color="#2961F4"/>
<stop offset="1" stop-color="#5DC9DC"/>
</linearGradient>
<linearGradient id="paint2_linear_1428_23165" x1="-3.13478" y1="85.1267" x2="56.3536" y2="-7.71982" gradientUnits="userSpaceOnUse">
<stop stop-color="#2961F4"/>
<stop offset="1" stop-color="#5DC9DC"/>
</linearGradient>
<linearGradient id="paint3_linear_1428_23165" x1="0.324376" y1="87.3403" x2="59.8128" y2="-5.50623" gradientUnits="userSpaceOnUse">
<stop stop-color="#2961F4"/>
<stop offset="1" stop-color="#5DC9DC"/>
</linearGradient>
<linearGradient id="paint4_linear_1428_23165" x1="46.3273" y1="64.9165" x2="53.5436" y2="62.9829" gradientUnits="userSpaceOnUse">
<stop stop-color="#2961F4"/>
<stop offset="1" stop-color="#5DC9DC"/>
</linearGradient>
<clipPath id="clip0_1428_23165">
<rect width="70.963" height="79.0425" fill="white" transform="translate(0 18.3667) rotate(-15)"/>
</clipPath>
</defs>
</svg>
