<svg width="90" height="90" viewBox="0 0 90 90" fill="none" xmlns="http://www.w3.org/2000/svg">
<g clip-path="url(#clip0_1598_23683)">
<path d="M83.9561 2.94629H9.13236C5.79441 2.94629 3.08847 5.65666 3.08847 9.00007V83.9463C3.08847 87.2897 5.79441 90.0001 9.13236 90.0001H83.9561C87.2941 90.0001 90 87.2897 90 83.9463V9.00007C90 5.65666 87.2941 2.94629 83.9561 2.94629Z" fill="url(#paint0_radial_1598_23683)"/>
<path d="M80.7696 0.526123H6.71622C3.37827 0.526123 0.672333 3.23649 0.672333 6.5799V80.7545C0.672333 84.0979 3.37827 86.8083 6.71622 86.8083H80.7696C84.1076 86.8083 86.8135 84.0979 86.8135 80.7545V6.5799C86.8135 3.23649 84.1076 0.526123 80.7696 0.526123Z" fill="white" stroke="#1A1A1A" stroke-width="1.5" stroke-miterlimit="10" stroke-linecap="round"/>
<path d="M8.50906 4.60178C9.72764 4.60178 10.7151 5.59087 10.7151 6.81145C10.7151 8.03202 9.72764 9.02111 8.50906 9.02111C7.29048 9.02111 6.303 8.03202 6.303 6.81145C6.303 5.59087 7.29048 4.60178 8.50906 4.60178ZM8.50906 3.54956C6.7162 3.54956 5.2525 5.01566 5.2525 6.81145C5.2525 8.60724 6.7162 10.0733 8.50906 10.0733C10.3019 10.0733 11.7656 8.60724 11.7656 6.81145C11.7656 5.01566 10.3019 3.54956 8.50906 3.54956Z" fill="#1A1A1A"/>
<path d="M16.857 4.60178C18.0756 4.60178 19.0631 5.59087 19.0631 6.81145C19.0631 8.03202 18.0756 9.02111 16.857 9.02111C15.6385 9.02111 14.651 8.03202 14.651 6.81145C14.651 5.59087 15.6385 4.60178 16.857 4.60178ZM16.857 3.54956C15.0642 3.54956 13.6005 5.01566 13.6005 6.81145C13.6005 8.60724 15.0642 10.0733 16.857 10.0733C18.6499 10.0733 20.1136 8.60724 20.1136 6.81145C20.1136 5.01566 18.6499 3.54956 16.857 3.54956Z" fill="#1A1A1A"/>
<path d="M25.198 4.60178C26.4166 4.60178 27.4041 5.59087 27.4041 6.81145C27.4041 8.03202 26.4166 9.02111 25.198 9.02111C23.9794 9.02111 22.992 8.03202 22.992 6.81145C22.992 5.59087 23.9794 4.60178 25.198 4.60178ZM25.198 3.54956C23.4052 3.54956 21.9415 5.01566 21.9415 6.81145C21.9415 8.60724 23.4052 10.0733 25.198 10.0733C26.9909 10.0733 28.4546 8.60724 28.4546 6.81145C28.4546 5.01566 26.9909 3.54956 25.198 3.54956Z" fill="#1A1A1A"/>
<path d="M0.525238 14.1208H86.9535" stroke="#1A1A1A" stroke-width="1.5" stroke-miterlimit="10" stroke-linecap="round"/>
<path d="M43 66.4781C52.6529 66.4781 60.4782 58.6528 60.4782 48.9999C60.4782 39.347 52.6529 31.5217 43 31.5217C33.3471 31.5217 25.5219 39.347 25.5219 48.9999C25.5219 58.6528 33.3471 66.4781 43 66.4781Z" fill="url(#paint1_radial_1598_23683)" stroke="#1A1A1A" stroke-width="1.5" stroke-miterlimit="10" stroke-linecap="round"/>
<path d="M37.3433 49.4035V46.4742C37.3433 42.8422 39.9177 41.3602 43.0626 43.1762L45.5953 44.6374L48.128 46.0985C51.2729 47.9145 51.2729 50.8855 48.128 52.7015L45.5953 54.1627L43.0626 55.6238C39.9177 57.4398 37.3433 55.9509 37.3433 52.3258V49.3966V49.4035Z" fill="white" stroke="#1A1A1A" stroke-width="1.5" stroke-miterlimit="10" stroke-linecap="round"/>
</g>
<defs>
<radialGradient id="paint0_radial_1598_23683" cx="0" cy="0" r="1" gradientUnits="userSpaceOnUse" gradientTransform="translate(90 2.94628) rotate(134.953) scale(123.012 116.518)">
<stop stop-color="#FEBE14"/>
<stop offset="1" stop-color="#EB2F2A"/>
</radialGradient>
<radialGradient id="paint1_radial_1598_23683" cx="0" cy="0" r="1" gradientUnits="userSpaceOnUse" gradientTransform="translate(60.4782 31.5217) rotate(135) scale(49.4357 46.8258)">
<stop stop-color="#FEBE14"/>
<stop offset="1" stop-color="#EB2F2A"/>
</radialGradient>
<clipPath id="clip0_1598_23683">
<rect width="90" height="90" fill="white"/>
</clipPath>
</defs>
</svg>
