<svg width="805" height="426" viewBox="0 0 805 426" fill="none" xmlns="http://www.w3.org/2000/svg">
<path d="M788.396 10.1672H26.5628C17.4008 10.1672 9.97359 16.0315 9.97359 23.2654V412.902C9.97359 420.136 17.4008 426 26.5628 426H788.396C797.558 426 804.985 420.136 804.985 412.902V23.2654C804.985 16.0315 797.558 10.1672 788.396 10.1672Z" fill="url(#paint0_linear_1587_24263)"/>
<path d="M779.437 1H17.6038C8.44187 1 1.01465 6.86425 1.01465 14.0982V403.735C1.01465 410.969 8.44187 416.833 17.6038 416.833H779.437C788.599 416.833 796.026 410.969 796.026 403.735V14.0982C796.026 6.86425 788.599 1 779.437 1Z" fill="white" stroke="#1A1A1A" stroke-width="1.5" stroke-miterlimit="10" stroke-linecap="round"/>
<path d="M30.2248 27.7222C26.3325 27.7222 23.1701 24.5623 23.1701 20.6732C23.1701 16.7842 26.3325 13.6243 30.2248 13.6243C34.117 13.6243 37.2795 16.7842 37.2795 20.6732C37.2795 24.5623 34.117 27.7222 30.2248 27.7222Z" stroke="#1A1A1A" stroke-width="1.5" stroke-miterlimit="10" stroke-linecap="round"/>
<path d="M53.7151 27.7222C49.8229 27.7222 46.6604 24.5623 46.6604 20.6732C46.6604 16.7842 49.8229 13.6243 53.7151 13.6243C57.6074 13.6243 60.7698 16.7842 60.7698 20.6732C60.7698 24.5623 57.6074 27.7222 53.7151 27.7222Z" stroke="#1A1A1A" stroke-width="1.5" stroke-miterlimit="10" stroke-linecap="round"/>
<path d="M77.1902 27.7222C73.298 27.7222 70.1355 24.5623 70.1355 20.6732C70.1355 16.7842 73.298 13.6243 77.1902 13.6243C81.0825 13.6243 84.2449 16.7842 84.2449 20.6732C84.2449 24.5623 81.0825 27.7222 77.1902 27.7222Z" stroke="#1A1A1A" stroke-width="1.5" stroke-miterlimit="10" stroke-linecap="round"/>
<path d="M1.01465 38.918H796.026" stroke="#1A1A1A" stroke-width="1.5" stroke-miterlimit="10" stroke-linecap="round"/>
<defs>
<linearGradient id="paint0_linear_1587_24263" x1="9.97359" y1="218.084" x2="804.985" y2="218.084" gradientUnits="userSpaceOnUse">
<stop stop-color="#EA2E2A"/>
<stop offset="1" stop-color="#FDBD15"/>
</linearGradient>
</defs>
</svg>
