<svg width="90" height="90" viewBox="0 0 90 90" fill="none" xmlns="http://www.w3.org/2000/svg">
<g clip-path="url(#clip0_1598_23534)">
<path d="M83.9561 2.94629H9.13236C5.79441 2.94629 3.08847 5.65666 3.08847 9.00007V83.9463C3.08847 87.2897 5.79441 90.0001 9.13236 90.0001H83.9561C87.2941 90.0001 90 87.2897 90 83.9463V9.00007C90 5.65666 87.2941 2.94629 83.9561 2.94629Z" fill="url(#paint0_radial_1598_23534)"/>
<path d="M80.7696 0.525879H6.71621C3.37826 0.525879 0.672318 3.23625 0.672318 6.57966V80.7543C0.672318 84.0977 3.37826 86.808 6.71621 86.808H80.7696C84.1075 86.808 86.8135 84.0977 86.8135 80.7543V6.57966C86.8135 3.23625 84.1075 0.525879 80.7696 0.525879Z" fill="white" stroke="#1A1A1A" stroke-width="1.5" stroke-miterlimit="10" stroke-linecap="round"/>
<path d="M8.50906 4.60154C9.72764 4.60154 10.7151 5.59063 10.7151 6.8112C10.7151 8.03178 9.72764 9.02087 8.50906 9.02087C7.29048 9.02087 6.303 8.03178 6.303 6.8112C6.303 5.59063 7.29048 4.60154 8.50906 4.60154ZM8.50906 3.54932C6.7162 3.54932 5.2525 5.01541 5.2525 6.8112C5.2525 8.60699 6.7162 10.0731 8.50906 10.0731C10.3019 10.0731 11.7656 8.60699 11.7656 6.8112C11.7656 5.01541 10.3019 3.54932 8.50906 3.54932Z" fill="#1A1A1A"/>
<path d="M16.857 4.60154C18.0756 4.60154 19.0631 5.59063 19.0631 6.8112C19.0631 8.03178 18.0756 9.02087 16.857 9.02087C15.6385 9.02087 14.651 8.03178 14.651 6.8112C14.651 5.59063 15.6385 4.60154 16.857 4.60154ZM16.857 3.54932C15.0642 3.54932 13.6005 5.01541 13.6005 6.8112C13.6005 8.60699 15.0642 10.0731 16.857 10.0731C18.6499 10.0731 20.1136 8.60699 20.1136 6.8112C20.1136 5.01541 18.6499 3.54932 16.857 3.54932Z" fill="#1A1A1A"/>
<path d="M25.198 4.60154C26.4166 4.60154 27.4041 5.59063 27.4041 6.8112C27.4041 8.03178 26.4166 9.02087 25.198 9.02087C23.9795 9.02087 22.992 8.03178 22.992 6.8112C22.992 5.59063 23.9795 4.60154 25.198 4.60154ZM25.198 3.54932C23.4052 3.54932 21.9415 5.01541 21.9415 6.8112C21.9415 8.60699 23.4052 10.0731 25.198 10.0731C26.9909 10.0731 28.4546 8.60699 28.4546 6.8112C28.4546 5.01541 26.9909 3.54932 25.198 3.54932Z" fill="#1A1A1A"/>
<path d="M0.525253 14.1206H86.9535" stroke="#1A1A1A" stroke-width="1.5" stroke-miterlimit="10" stroke-linecap="round"/>
<path d="M49.0406 65.7972L57.1258 61.1292C54.4025 56.6306 52.8136 51.3346 52.8405 46.0748L52.851 43.9666C52.879 38.5474 49.2221 33.8652 43.9584 32.5795C37.7067 31.0541 31.3751 34.8958 29.8384 41.1478C28.5491 46.4138 31.0118 51.8184 35.8341 54.295L37.7112 55.2586C42.3932 57.6629 46.3091 61.3033 49.0406 65.7972Z" fill="white" stroke="#1A1A1A" stroke-width="1.5" stroke-miterlimit="10"/>
<path d="M48.979 65.6904L57.0642 61.0224L59.6693 65.5346C60.9564 67.764 60.1867 70.617 57.9588 71.9033C55.7269 73.1919 52.873 72.4255 51.5882 70.2002L48.9831 65.6881L48.979 65.6904Z" fill="white" stroke="#1A1A1A" stroke-width="1.5" stroke-miterlimit="10"/>
<path d="M22.2304 46.6895L26.1532 46.2695" stroke="#1A1A1A" stroke-width="1.5" stroke-linecap="round" stroke-linejoin="round"/>
<path d="M22.8148 53.3594L27.8377 50.4594" stroke="#1A1A1A" stroke-width="1.5" stroke-linecap="round" stroke-linejoin="round"/>
<path d="M27.4882 58.3687L31.3058 54.4347" stroke="#1A1A1A" stroke-width="1.5" stroke-linecap="round" stroke-linejoin="round"/>
<path d="M33.2013 60.6323L34.709 57.605" stroke="#1A1A1A" stroke-width="1.5" stroke-linecap="round" stroke-linejoin="round"/>
<path d="M53.0873 28.8746L50.7622 32.0618" stroke="#1A1A1A" stroke-width="1.5" stroke-linecap="round" stroke-linejoin="round"/>
<path d="M58.5713 32.7157L53.5483 35.6157" stroke="#1A1A1A" stroke-width="1.5" stroke-linecap="round" stroke-linejoin="round"/>
<path d="M60.5729 39.2678L55.2572 40.6069" stroke="#1A1A1A" stroke-width="1.5" stroke-linecap="round" stroke-linejoin="round"/>
<path d="M59.6765 45.3472L56.301 45.1392" stroke="#1A1A1A" stroke-width="1.5" stroke-linecap="round" stroke-linejoin="round"/>
<path d="M49.2327 59.7412L44.1346 51.3857C44.1346 51.3857 42.7252 48.7452 40.2669 48.9109C37.974 49.0687 37.9059 51.4948 40.5508 51.7852C43.1956 52.0757 45.5486 50.5694 46.962 48.2808C48.3755 45.9921 48.3422 43.6848 46.6373 42.3645C45.3822 41.3866 42.3201 43.1928 45.9587 49.4951C47.8597 52.7878 51.7511 58.4077 51.7511 58.4077" fill="white"/>
<path d="M49.2327 59.7412L44.1346 51.3857C44.1346 51.3857 42.7252 48.7452 40.2669 48.9109C37.974 49.0687 37.9059 51.4948 40.5508 51.7852C43.1956 52.0757 45.5486 50.5694 46.962 48.2808C48.3755 45.9921 48.3422 43.6848 46.6373 42.3645C45.3822 41.3866 42.3201 43.1928 45.9587 49.4951C47.8597 52.7878 51.751 58.4077 51.751 58.4077" stroke="url(#paint1_radial_1598_23534)" stroke-width="1.5" stroke-linecap="round" stroke-linejoin="round"/>
<path d="M48.979 65.6904L57.0642 61.0224L59.6693 65.5346C60.9564 67.764 60.1867 70.617 57.9588 71.9033C55.7269 73.1919 52.873 72.4255 51.5882 70.2002L48.9831 65.6881L48.979 65.6904Z" fill="#1A1A1A" stroke="#1A1A1A" stroke-width="1.5" stroke-miterlimit="10"/>
</g>
<defs>
<radialGradient id="paint0_radial_1598_23534" cx="0" cy="0" r="1" gradientUnits="userSpaceOnUse" gradientTransform="translate(90 2.94628) rotate(134.953) scale(123.012 116.518)">
<stop stop-color="#FEBE14"/>
<stop offset="1" stop-color="#EB2F2A"/>
</radialGradient>
<radialGradient id="paint1_radial_1598_23534" cx="0" cy="0" r="1" gradientUnits="userSpaceOnUse" gradientTransform="translate(46.4834 41.5692) rotate(93.4108) scale(20.6248 17.959)">
<stop stop-color="#FEBE14"/>
<stop offset="1" stop-color="#EB2F2A"/>
</radialGradient>
<clipPath id="clip0_1598_23534">
<rect width="90" height="90" fill="white"/>
</clipPath>
</defs>
</svg>
