<svg width="90" height="90" viewBox="0 0 90 90" fill="none" xmlns="http://www.w3.org/2000/svg">
<g clip-path="url(#clip0_1598_23559)">
<path d="M83.9561 2.94629H9.13236C5.79441 2.94629 3.08847 5.65666 3.08847 9.00007V83.9463C3.08847 87.2897 5.79441 90.0001 9.13236 90.0001H83.9561C87.2941 90.0001 90 87.2897 90 83.9463V9.00007C90 5.65666 87.2941 2.94629 83.9561 2.94629Z" fill="url(#paint0_radial_1598_23559)"/>
<path d="M80.7696 0.525879H6.71621C3.37826 0.525879 0.672318 3.23625 0.672318 6.57966V80.7543C0.672318 84.0977 3.37826 86.808 6.71621 86.808H80.7696C84.1075 86.808 86.8135 84.0977 86.8135 80.7543V6.57966C86.8135 3.23625 84.1075 0.525879 80.7696 0.525879Z" fill="white" stroke="#1A1A1A" stroke-width="1.5" stroke-miterlimit="10" stroke-linecap="round"/>
<g clip-path="url(#clip1_1598_23559)">
<path d="M67.3506 38.6581L26.7341 65.1655L19.76 54.2616L60.3835 27.7542C63.3623 25.8073 67.3365 26.6702 69.2635 29.6868C71.1906 32.6963 70.3365 36.7112 67.3506 38.6581Z" fill="#1A1A1A" stroke="#1A1A1A" stroke-width="1.5" stroke-linecap="round" stroke-linejoin="round"/>
<path d="M19.6824 54.3045L14.7059 65.2868L26.6635 65.2227L19.6824 54.2974V54.3045Z" stroke="#1A1A1A" stroke-width="1.5" stroke-linecap="round" stroke-linejoin="round"/>
<path d="M20.5577 65.2582L17.1412 59.9097L14.7059 65.2867L20.5577 65.2582Z" fill="#1A1A1A" stroke="#1A1A1A" stroke-width="1.5" stroke-linecap="round" stroke-linejoin="round"/>
<path d="M57.9122 29.364L19.7624 54.2598L26.7331 65.1622L64.8828 40.2664L57.9122 29.364Z" fill="url(#paint1_radial_1598_23559)" stroke="#1A1A1A" stroke-width="1.5" stroke-linecap="round" stroke-linejoin="round"/>
</g>
<path d="M8.50906 4.60154C9.72764 4.60154 10.7151 5.59063 10.7151 6.8112C10.7151 8.03178 9.72764 9.02087 8.50906 9.02087C7.29048 9.02087 6.303 8.03178 6.303 6.8112C6.303 5.59063 7.29048 4.60154 8.50906 4.60154ZM8.50906 3.54932C6.7162 3.54932 5.2525 5.01541 5.2525 6.8112C5.2525 8.60699 6.7162 10.0731 8.50906 10.0731C10.3019 10.0731 11.7656 8.60699 11.7656 6.8112C11.7656 5.01541 10.3019 3.54932 8.50906 3.54932Z" fill="#1A1A1A"/>
<path d="M16.857 4.60154C18.0756 4.60154 19.0631 5.59063 19.0631 6.8112C19.0631 8.03178 18.0756 9.02087 16.857 9.02087C15.6385 9.02087 14.651 8.03178 14.651 6.8112C14.651 5.59063 15.6385 4.60154 16.857 4.60154ZM16.857 3.54932C15.0642 3.54932 13.6005 5.01541 13.6005 6.8112C13.6005 8.60699 15.0642 10.0731 16.857 10.0731C18.6499 10.0731 20.1136 8.60699 20.1136 6.8112C20.1136 5.01541 18.6499 3.54932 16.857 3.54932Z" fill="#1A1A1A"/>
<path d="M25.198 4.60154C26.4166 4.60154 27.4041 5.59063 27.4041 6.8112C27.4041 8.03178 26.4166 9.02087 25.198 9.02087C23.9795 9.02087 22.992 8.03178 22.992 6.8112C22.992 5.59063 23.9795 4.60154 25.198 4.60154ZM25.198 3.54932C23.4052 3.54932 21.9415 5.01541 21.9415 6.8112C21.9415 8.60699 23.4052 10.0731 25.198 10.0731C26.9909 10.0731 28.4546 8.60699 28.4546 6.8112C28.4546 5.01541 26.9909 3.54932 25.198 3.54932Z" fill="#1A1A1A"/>
<path d="M0.525253 14.1206H86.9535" stroke="#1A1A1A" stroke-width="1.5" stroke-miterlimit="10" stroke-linecap="round"/>
</g>
<defs>
<radialGradient id="paint0_radial_1598_23559" cx="0" cy="0" r="1" gradientUnits="userSpaceOnUse" gradientTransform="translate(90 2.94628) rotate(134.953) scale(123.012 116.518)">
<stop stop-color="#FEBE14"/>
<stop offset="1" stop-color="#EB2F2A"/>
</radialGradient>
<radialGradient id="paint1_radial_1598_23559" cx="0" cy="0" r="1" gradientUnits="userSpaceOnUse" gradientTransform="translate(57.9122 29.364) rotate(131.055) scale(47.4727 23.5229)">
<stop stop-color="#FEBE14"/>
<stop offset="1" stop-color="#EB2F2A"/>
</radialGradient>
<clipPath id="clip0_1598_23559">
<rect width="90" height="90" fill="white"/>
</clipPath>
<clipPath id="clip1_1598_23559">
<rect width="57" height="40" fill="white" transform="translate(14 26)"/>
</clipPath>
</defs>
</svg>
