<svg width="122" height="83" viewBox="0 0 122 83" fill="none" xmlns="http://www.w3.org/2000/svg">
<g clip-path="url(#clip0_1428_24792)">
<path d="M116.589 4.58105H9.95659C6.96821 4.58105 4.54565 7.02258 4.54565 10.0343V77.5465C4.54565 80.5583 6.96821 82.9998 9.95659 82.9998H116.589C119.577 82.9998 122 80.5583 122 77.5465V10.0343C122 7.02258 119.577 4.58105 116.589 4.58105Z" fill="url(#paint0_linear_1428_24792)"/>
<path d="M112.827 0.790039H6.19463C3.20625 0.790039 0.783691 3.23156 0.783691 6.24333V73.7555C0.783691 76.7672 3.20625 79.2088 6.19463 79.2088H112.827C115.815 79.2088 118.238 76.7672 118.238 73.7555V6.24333C118.238 3.23156 115.815 0.790039 112.827 0.790039Z" fill="white" stroke="#1A1A1A" stroke-miterlimit="10" stroke-linecap="round"/>
<path d="M7.12891 9.73758C5.96897 9.73758 5.02222 8.78341 5.02222 7.61439C5.02222 6.44538 5.96897 5.49121 7.12891 5.49121C8.28884 5.49121 9.2356 6.44538 9.2356 7.61439C9.2356 8.78341 8.28884 9.73758 7.12891 9.73758Z" stroke="#1A1A1A" stroke-miterlimit="10" stroke-linecap="round"/>
<path d="M14.1449 9.73758C12.985 9.73758 12.0382 8.78341 12.0382 7.61439C12.0382 6.44538 12.985 5.49121 14.1449 5.49121C15.3048 5.49121 16.2516 6.44538 16.2516 7.61439C16.2516 8.78341 15.3048 9.73758 14.1449 9.73758Z" stroke="#1A1A1A" stroke-miterlimit="10" stroke-linecap="round"/>
<path d="M21.161 9.73758C20.0011 9.73758 19.0543 8.78341 19.0543 7.61439C19.0543 6.44538 20.0011 5.49121 21.161 5.49121C22.3209 5.49121 23.2677 6.44538 23.2677 7.61439C23.2677 8.78341 22.3209 9.73758 21.161 9.73758Z" stroke="#1A1A1A" stroke-miterlimit="10" stroke-linecap="round"/>
<path d="M0.783691 13.3838H118.238" stroke="#1A1A1A" stroke-miterlimit="10" stroke-linecap="round"/>
</g>
<defs>
<linearGradient id="paint0_linear_1428_24792" x1="4.54565" y1="43.7904" x2="122" y2="43.7904" gradientUnits="userSpaceOnUse">
<stop stop-color="#2961F4"/>
<stop offset="1" stop-color="#5DC9DC"/>
</linearGradient>
<clipPath id="clip0_1428_24792">
<rect width="122" height="83" fill="white"/>
</clipPath>
</defs>
</svg>
