<svg width="18" height="18" viewBox="0 0 18 18" fill="none" xmlns="http://www.w3.org/2000/svg">
<path d="M11.1427 16.6784H6.857C2.97843 16.6784 1.32129 15.0213 1.32129 11.1427L1.32129 6.857C1.32129 2.97843 2.97843 1.32129 6.857 1.32129L11.1427 1.32129C15.0213 1.32129 16.6784 2.97843 16.6784 6.857V11.1427C16.6784 15.0213 15.0213 16.6784 11.1427 16.6784ZM6.857 2.39272C3.56415 2.39272 2.39272 3.56415 2.39272 6.857L2.39272 11.1427C2.39272 14.4356 3.56415 15.607 6.857 15.607H11.1427C14.4356 15.607 15.607 14.4356 15.607 11.1427V6.857C15.607 3.56415 14.4356 2.39272 11.1427 2.39272L6.857 2.39272Z" fill="white"/>
<path d="M8.99983 12.0363C7.3284 12.0363 5.96411 10.672 5.96411 9.00056C5.96411 7.32913 7.3284 5.96484 8.99983 5.96484C10.6713 5.96484 12.0355 7.32913 12.0355 9.00056C12.0355 10.672 10.6713 12.0363 8.99983 12.0363ZM8.99983 7.03627C7.91411 7.03627 7.03554 7.91484 7.03554 9.00056C7.03554 10.0863 7.91411 10.9648 8.99983 10.9648C10.0855 10.9648 10.9641 10.0863 10.9641 9.00056C10.9641 7.91484 10.0855 7.03627 8.99983 7.03627Z" fill="white"/>
<path d="M12.5712 5.78565C12.4784 5.78565 12.3855 5.76422 12.2998 5.7285C12.2141 5.69279 12.1355 5.64279 12.0641 5.5785C11.9998 5.50707 11.9426 5.4285 11.9069 5.34279C11.8712 5.25707 11.8569 5.16422 11.8569 5.07136C11.8569 4.9785 11.8712 4.88565 11.9069 4.79993C11.9498 4.70707 11.9998 4.63565 12.0641 4.56422C12.0998 4.53565 12.1355 4.49993 12.1712 4.4785C12.2141 4.44993 12.2569 4.4285 12.2998 4.41422C12.3426 4.39279 12.3855 4.3785 12.4355 4.37136C12.6641 4.32136 12.9069 4.39993 13.0784 4.56422C13.1426 4.63565 13.1926 4.70707 13.2284 4.79993C13.2641 4.88565 13.2855 4.9785 13.2855 5.07136C13.2855 5.16422 13.2641 5.25707 13.2284 5.34279C13.1926 5.4285 13.1426 5.50707 13.0784 5.5785C13.0069 5.64279 12.9284 5.69279 12.8426 5.7285C12.7569 5.76422 12.6641 5.78565 12.5712 5.78565Z" fill="white"/>
</svg>
