<svg width="18" height="18" viewBox="0 0 18 18" fill="none" xmlns="http://www.w3.org/2000/svg">
<path d="M1.47678 6.26912L4.62176 6.26912L4.62176 16.3849H1.47678L1.47678 6.26912ZM3.04935 1.24072C4.05453 1.24072 4.87141 2.05761 4.87141 3.06447C4.87141 4.07032 4.05453 4.8872 3.04935 4.8872C2.04182 4.8872 1.22729 4.07032 1.22729 3.06447C1.22729 2.05761 2.04182 1.24072 3.04935 1.24072Z" fill="white"/>
<path d="M6.59363 6.26905L9.60932 6.26905V7.65232H9.65231C10.072 6.85668 11.0979 6.01855 12.627 6.01855C15.8108 6.01855 16.3984 8.11302 16.3984 10.8368V16.3849H13.2558L13.2558 11.4655C13.2558 10.2921 13.2354 8.78325 11.622 8.78325C9.9859 8.78325 9.73625 10.0622 9.73625 11.3812L9.73625 16.3849H6.59363L6.59363 6.26905Z" fill="white"/>
</svg>
