<svg width="155" height="38" viewBox="0 0 155 38" fill="none" xmlns="http://www.w3.org/2000/svg">
<path d="M7.41058 28.1856C8.5878 28.1856 9.70015 27.8118 10.4958 27.3445C10.8774 27.1258 11.259 26.9389 11.736 26.9389C12.4991 26.9389 13.1994 27.7183 13.1994 28.5594C13.1994 29.1519 12.8178 29.6192 12.2454 29.993C11.0682 30.7406 9.57422 31.2396 7.12438 31.2396C3.1806 31.2396 0.0629632 28.1557 0 24.3858C0 20.0234 3.1806 16.5039 7.31518 16.5039C11.0357 16.5039 13.7393 19.3692 13.7393 22.2363C13.7393 23.8568 13.4856 24.6661 11.259 24.6979C9.47692 24.7596 7.31518 24.7297 3.52976 24.7596C3.65759 26.6287 5.24693 28.1875 7.41058 28.1875V28.1856ZM3.56219 22.5784C5.21641 22.5784 8.71373 22.5466 10.0512 22.4531C10.2744 22.4214 10.4328 22.3279 10.4328 22.1728C10.4328 20.4589 8.96939 19.2757 7.38005 19.2757C5.24884 19.2757 3.7549 20.9261 3.5641 22.5784" fill="#4D4D4D"/>
<path d="M29.8008 25.6943C29.8008 27.0345 29.8333 28.3428 29.9287 29.6829C29.9287 30.8044 29.0376 31.1165 28.1161 31.1165C27.0667 31.1165 26.7805 30.3371 26.5573 28.7166C25.6033 30.3371 23.9491 31.21 21.8827 31.21C17.6527 31.21 14.9816 28.0942 14.9816 24.2925C14.9816 19.7432 18.1622 16.5957 22.2967 16.5957C24.0788 16.5957 25.6681 17.3751 26.6221 18.7769C26.6851 18.4031 26.75 17.9041 26.8129 17.6237C27.0362 17.0312 27.4807 16.6574 28.2134 16.6574C29.486 16.6574 29.8676 17.3732 29.8676 18.5582L29.8352 20.9581L29.8027 25.6943H29.8008ZM22.3273 28.2811C24.6798 28.2811 26.4943 26.5354 26.4943 23.8888C26.4943 21.0534 24.5539 19.5264 22.4875 19.5264C20.198 19.5264 18.5113 21.4272 18.5113 24.1991C18.5113 26.5672 20.1961 28.2811 22.3273 28.2811Z" fill="#4D4D4D"/>
<path d="M42.3627 17.2499C42.9026 17.4984 43.3491 17.8424 43.3491 18.4648C43.3491 19.3376 42.9351 19.9282 41.9811 19.9282C41.0271 19.9282 39.9453 19.2124 38.1327 19.2124C36.6693 19.2124 35.4291 19.8983 35.4291 20.9562C35.4291 22.1094 36.8601 22.2029 38.4513 22.4197C41.5041 22.8253 43.8261 23.7598 43.8261 26.6251C43.8261 29.4904 41.4716 31.2361 37.7835 31.2361C34.9845 31.2361 32.1226 30.3016 32.1226 29.21C32.1226 28.3372 32.4717 27.5279 33.4906 27.5279C34.6678 27.5279 35.8755 28.4325 38.1022 28.4325C39.5007 28.4325 40.6474 27.84 40.6474 26.7186C40.6474 25.5354 39.5331 25.2233 37.5622 24.943C35.017 24.6009 32.2504 23.9467 32.2504 21.1413C32.2504 18.3358 35.1124 16.5303 38.1022 16.5303C39.9147 16.5303 41.4106 16.8106 42.3646 17.2461" fill="#4D4D4D"/>
<path d="M55.4973 17.9671C55.8159 17.1877 56.1975 16.627 57.0561 16.627C57.9776 16.627 58.9641 17.2195 58.9641 18.0288C58.9641 18.4961 58.8362 18.9017 58.6149 19.3372C56.5486 23.9799 53.7801 29.961 51.4275 34.6037C50.1874 36.8167 48.6285 37.9998 46.6881 37.9998C45.2572 37.9998 44.2078 37.5942 44.2078 36.3177C44.2078 35.2897 44.7496 34.729 45.8944 34.729C47.23 34.729 47.707 34.3234 48.5656 32.8599C49.0101 32.1123 49.4242 31.2712 49.9966 30.1796L49.0101 28.1536L45.0339 19.711C44.6848 18.9634 44.494 18.526 44.494 18.0288C44.494 17.156 45.5109 16.5635 46.339 16.5635C47.0697 16.5635 47.4208 16.8121 47.707 17.4046C50.1244 23.1071 50.8552 24.9444 51.7786 27.0004C52.414 25.6602 53.5607 22.8566 55.4992 17.9653" fill="#4D4D4D"/>
<path d="M60.6183 18.0909C60.6183 17.0629 61.2537 16.5321 62.3985 16.5321C63.2895 16.5321 63.797 17.0311 63.9248 17.8404L63.9878 18.9301C64.7834 17.3096 66.7238 16.4685 68.3132 16.4685C70.4749 16.4685 72.0032 17.6517 72.6061 19.2105C73.4972 17.6834 75.2773 16.5003 77.3455 16.4685C81.2264 16.4368 82.7527 19.0852 82.7527 22.5449V25.6924C82.7527 26.969 82.7203 28.2474 82.6898 29.7744C82.6268 30.866 81.6404 31.1146 80.9096 31.1146C79.9232 31.1146 79.1925 30.6155 79.1925 29.7427C79.2249 28.1222 79.3203 25.6606 79.3203 23.0757C79.3203 21.0197 78.6849 19.4609 76.7445 19.4609C74.9319 19.4609 73.5964 20.644 73.5315 22.8252C73.4991 24.0084 73.4991 24.6326 73.4991 26.1279V29.3689C73.4666 30.4604 72.8637 31.1146 71.654 31.1146C70.7325 31.0828 70.0323 30.6155 70.0323 29.681C70.0647 26.9391 70.1277 26.0363 70.0952 22.7337C70.0323 20.958 69.2366 19.431 67.4241 19.431C64.9742 19.431 64.0527 21.3319 64.0527 24.0102L64.0851 29.7744C64.0527 30.7408 63.2265 31.1146 62.2725 31.1146C61.4464 31.1146 60.5878 30.7408 60.5878 29.681C60.5878 29.2137 60.5553 28.9633 60.5878 27.9988L60.6832 23.3262C60.6832 19.2759 60.6202 18.6834 60.6202 18.0928" fill="#4D4D4D"/>
<path d="M93.6625 16.6571C97.7341 17.2496 99.5467 20.6457 99.5467 23.8848C99.5467 28.1538 96.2382 31.2695 91.8174 31.2695C87.9691 31.2695 84.5977 28.4659 84.5977 24.3222C84.5977 19.6794 87.6829 16.5338 92.7085 16.4702C93.0576 16.4702 93.3763 16.502 93.6625 16.6571ZM92.0731 19.4607C89.6557 19.586 88.0664 21.3616 88.0664 24.3203C88.0664 26.6884 89.9419 28.2771 91.7545 28.2771C94.0135 28.2771 96.0799 26.5314 96.0799 23.7596C96.0799 21.4849 94.6489 19.5841 92.0731 19.4607Z" fill="#4D4D4D"/>
<path d="M100.056 18.0289C100.087 17.0944 101.073 16.5654 101.932 16.5654C102.886 16.5654 103.267 17.1579 103.649 18.1541C104.761 20.8344 106.192 24.4791 107.307 27.1275C108.514 24.3856 110.201 20.2101 111.027 17.9672C111.346 17.1579 111.853 16.6271 112.649 16.6271C113.507 16.6271 114.494 17.1561 114.526 17.9672C114.526 18.528 114.398 18.9335 114.175 19.4326C113.38 21.0848 111.376 25.6024 109.501 29.5274C108.928 30.6806 108.323 31.1479 107.242 31.1479C106.16 31.1479 105.557 30.5554 104.952 29.2788C103.107 25.1669 101.962 22.6418 100.627 19.7765C100.278 18.9971 100.022 18.5915 100.054 18.0308" fill="#4D4D4D"/>
<path d="M115.862 10.5507C116.053 9.30401 117.134 8.71338 118.151 8.71338C119.582 8.71338 120.315 9.64791 120.315 10.831C120.315 12.2646 119.233 12.887 117.898 12.887C116.562 12.887 115.703 11.859 115.862 10.5507ZM117.961 16.5952C119.01 16.5952 119.773 16.9691 119.773 18.4961C119.806 20.8324 119.741 23.2323 119.773 25.5686V29.4638C119.806 30.617 119.138 31.1459 117.993 31.1459C117.007 31.1459 116.276 30.6787 116.276 29.6825V18.154C116.339 17.0008 117.199 16.5952 117.962 16.5952" fill="#4D4D4D"/>
<path d="M129.473 28.1856C130.651 28.1856 131.763 27.8118 132.559 27.3445C132.94 27.1258 133.322 26.9389 133.799 26.9389C134.562 26.9389 135.262 27.7183 135.262 28.5594C135.262 29.1519 134.881 29.6192 134.308 29.993C133.131 30.7406 131.637 31.2396 129.187 31.2396C125.243 31.2396 122.126 28.1557 122.063 24.3858C122.063 20.0234 125.243 16.5039 129.378 16.5039C133.099 16.5039 135.802 19.3692 135.802 22.2363C135.802 23.8568 135.548 24.6661 133.322 24.6979C131.542 24.7596 129.378 24.7297 125.593 24.7596C125.72 26.6287 127.31 28.1875 129.473 28.1875V28.1856ZM125.625 22.5784C127.279 22.5784 130.777 22.5466 132.114 22.4531C132.337 22.4214 132.496 22.3279 132.496 22.1728C132.496 20.4589 131.032 19.2757 129.443 19.2757C127.312 19.2757 125.818 20.9261 125.627 22.5784" fill="#4D4D4D"/>
<path d="M143.363 0.00732422C142.327 0.00732422 141.49 0.829714 141.49 1.84275V16.3692C141.49 17.3841 142.329 18.2046 143.363 18.2046C144.397 18.2046 145.237 17.3822 145.237 16.3692V1.84462C145.237 0.829714 144.397 0.00919297 143.363 0.00919297" fill="#0161FA"/>
<path d="M153.104 7.28019C152.709 7.28019 152.31 7.40168 151.97 7.654L142.23 14.9079C141.406 15.5209 141.246 16.6741 141.873 17.4797C142.499 18.2871 143.676 18.4441 144.499 17.8311L154.239 10.5772C155.063 9.96417 155.223 8.81096 154.598 8.00352C154.229 7.52878 153.67 7.27832 153.104 7.27832" fill="#EB2F2A"/>
<path d="M143.371 0.00732422C142.805 0.00732422 142.247 0.25778 141.877 0.732523C141.251 1.53996 141.412 2.69131 142.236 3.30436L151.976 10.5582C152.8 11.1713 153.976 11.0143 154.603 10.2068C155.229 9.3994 155.069 8.24805 154.245 7.63499L144.505 0.381138C144.165 0.128814 143.766 0.00732422 143.371 0.00732422Z" fill="#19A762"/>
<path d="M145.237 1.83916V5.54179L142.228 3.30078C141.742 2.93818 141.488 2.38867 141.488 1.83356C141.488 1.80739 141.488 1.78122 141.49 1.75506C141.49 1.75132 141.49 1.74571 141.49 1.74197C141.495 1.61861 141.515 1.49712 141.545 1.38124C141.547 1.3719 141.551 1.36442 141.553 1.35507C141.558 1.33452 141.564 1.31582 141.57 1.29526C141.574 1.28218 141.579 1.26723 141.583 1.25414C141.589 1.23919 141.593 1.22424 141.598 1.20929C141.606 1.1906 141.614 1.17191 141.621 1.15322C141.625 1.14387 141.629 1.13452 141.633 1.12518C141.681 1.0149 141.74 0.906498 141.812 0.803699C141.814 0.799961 141.818 0.798092 141.82 0.794354C141.835 0.771925 141.85 0.751366 141.867 0.730806C141.871 0.725199 141.875 0.719592 141.881 0.715854C141.898 0.695294 141.915 0.672865 141.932 0.652305C141.94 0.64296 141.95 0.633614 141.957 0.624269C141.971 0.609316 141.984 0.594364 141.999 0.579412C142.009 0.568197 142.02 0.556983 142.032 0.547637C142.043 0.536423 142.054 0.525208 142.068 0.513994C142.117 0.467267 142.169 0.42241 142.224 0.38129C142.232 0.373814 142.241 0.368207 142.251 0.3626C142.268 0.351385 142.283 0.340171 142.301 0.327087C142.31 0.319611 142.322 0.312135 142.333 0.304658C142.348 0.295313 142.365 0.284099 142.381 0.274753C142.394 0.267277 142.407 0.257932 142.421 0.250455C142.434 0.242979 142.449 0.233633 142.463 0.226157C142.484 0.214943 142.507 0.203729 142.528 0.192515C142.535 0.188776 142.541 0.185038 142.549 0.1813C142.579 0.166347 142.612 0.153264 142.644 0.14018C142.676 0.127097 142.707 0.115883 142.741 0.104668L142.751 0.10093C142.781 0.0915845 142.81 0.0822389 142.841 0.0728936L142.854 0.0691553C142.883 0.0616791 142.913 0.054203 142.942 0.0467267C142.945 0.0467267 142.951 0.0448576 142.955 0.0429885C142.984 0.0373813 143.012 0.0317741 143.043 0.0261668H143.058C143.087 0.0186906 143.115 0.0149528 143.144 0.0112147C143.15 0.0112147 143.155 0.0112143 143.163 0.0093452C143.19 0.00560706 143.218 0.00373854 143.245 0.00186947C143.253 0.00186947 143.258 0.00186947 143.266 0.00186947C143.295 0.00186947 143.323 0 143.352 0C143.358 0 143.361 0 143.367 0H143.377C143.417 0 143.457 0.00186955 143.497 0.00560769C143.508 0.00560769 143.52 0.00560738 143.533 0.00747645C143.575 0.0112146 143.617 0.0149524 143.659 0.0224286C143.667 0.0224286 143.672 0.0242978 143.68 0.0261668C143.718 0.0317741 143.756 0.0411199 143.795 0.0485962C143.802 0.0485962 143.812 0.0523341 143.819 0.0542032C143.861 0.0635485 143.903 0.0766317 143.945 0.0897152C143.953 0.0915843 143.961 0.0953226 143.97 0.0971917C144.058 0.125228 144.144 0.162609 144.226 0.203729C144.231 0.205598 144.237 0.209336 144.243 0.211205C144.285 0.231765 144.325 0.256062 144.365 0.28036C144.371 0.284098 144.375 0.287836 144.38 0.289706C144.42 0.315872 144.46 0.342039 144.499 0.370076C144.951 0.704639 145.241 1.23545 145.241 1.83356" fill="#25CBDF"/>
<path d="M155 9.12658C154.994 9.506 154.868 9.88729 154.617 10.2125C153.987 11.0218 152.808 11.1807 151.98 10.5639L150.022 9.10602L151.98 7.64814C152.319 7.39395 152.72 7.27246 153.117 7.27246C153.685 7.27246 154.246 7.52292 154.617 7.99953C154.868 8.32475 154.994 8.70604 155 9.08546C155 9.09293 155 9.09854 155 9.10602C155 9.11349 155 9.1191 155 9.12658Z" fill="#FEBE14"/>
<path d="M145.237 16.3711V12.6685L142.228 14.9095C141.742 15.2721 141.488 15.8216 141.488 16.3767C141.488 16.4029 141.488 16.429 141.49 16.4552C141.49 16.4589 141.49 16.4645 141.49 16.4683C141.495 16.5916 141.515 16.7131 141.545 16.829C141.547 16.8383 141.551 16.8458 141.553 16.8552C141.558 16.8757 141.564 16.8944 141.57 16.915C141.574 16.9281 141.579 16.943 141.583 16.9561C141.589 16.9711 141.593 16.986 141.598 17.001C141.606 17.0196 141.614 17.0383 141.621 17.057C141.625 17.0664 141.629 17.0757 141.633 17.0851C141.681 17.1953 141.74 17.3037 141.812 17.4065C141.814 17.4103 141.818 17.414 141.82 17.4159C141.835 17.4383 141.85 17.4589 141.867 17.4794C141.871 17.485 141.875 17.4907 141.881 17.4944C141.898 17.515 141.915 17.5374 141.932 17.5561C141.94 17.5654 141.95 17.5748 141.957 17.5841C141.971 17.5991 141.984 17.614 141.999 17.629C142.009 17.6402 142.02 17.6514 142.032 17.6607C142.043 17.672 142.054 17.6832 142.068 17.6944C142.117 17.7411 142.169 17.786 142.224 17.8252C142.232 17.8327 142.241 17.8383 142.251 17.8439C142.268 17.8551 142.283 17.8663 142.301 17.8794C142.31 17.8869 142.322 17.8944 142.333 17.9018C142.348 17.9112 142.365 17.9224 142.381 17.9318C142.394 17.9392 142.407 17.9486 142.421 17.9561C142.434 17.9635 142.449 17.9729 142.463 17.9804C142.484 17.9916 142.507 18.0028 142.528 18.014C142.535 18.0177 142.541 18.0215 142.549 18.0252C142.579 18.0402 142.612 18.0532 142.644 18.0663C142.676 18.0794 142.707 18.0906 142.741 18.1018L142.751 18.1056C142.781 18.1149 142.81 18.1243 142.841 18.1336L142.854 18.1374C142.883 18.1448 142.913 18.1523 142.942 18.1598C142.945 18.1598 142.951 18.1616 142.955 18.1635C142.984 18.1691 143.012 18.1747 143.043 18.1803H143.058C143.087 18.1878 143.115 18.1916 143.144 18.1953C143.15 18.1953 143.155 18.1953 143.163 18.1972C143.19 18.2009 143.218 18.2028 143.245 18.2046C143.253 18.2046 143.258 18.2046 143.266 18.2046C143.295 18.2046 143.323 18.2065 143.352 18.2065C143.358 18.2065 143.361 18.2065 143.367 18.2065H143.377C143.417 18.2065 143.457 18.2046 143.497 18.2009C143.508 18.2009 143.52 18.2009 143.533 18.199C143.575 18.1953 143.617 18.1916 143.659 18.1841C143.667 18.1841 143.672 18.1822 143.68 18.1803C143.718 18.1747 143.756 18.1654 143.795 18.1579C143.802 18.156 143.812 18.1542 143.819 18.1523C143.861 18.1411 143.903 18.1299 143.945 18.1168C143.953 18.1149 143.961 18.1112 143.97 18.1093C144.058 18.0813 144.144 18.0439 144.226 18.0028C144.231 18.0009 144.237 17.9972 144.243 17.9953C144.285 17.9747 144.325 17.9504 144.365 17.9261C144.371 17.9224 144.375 17.9187 144.38 17.9168C144.42 17.8906 144.46 17.8645 144.499 17.8364C144.951 17.5019 145.241 16.9711 145.241 16.3729" fill="#7A79FD"/>
</svg>
