<svg width="120" height="30" viewBox="0 0 120 30" fill="none" xmlns="http://www.w3.org/2000/svg">
<path d="M5.79463 22.2517C6.70507 22.2517 7.56533 21.9566 8.18065 21.5877C8.47576 21.415 8.77088 21.2675 9.13977 21.2675C9.73001 21.2675 10.2715 21.8828 10.2715 22.5468C10.2715 23.0146 9.97643 23.3834 9.53375 23.6786C8.62332 24.2688 7.46794 24.6628 5.57329 24.6628C2.52327 24.6628 0.112171 22.2281 0.0634766 19.2518C0.0634766 15.8078 2.52327 13.0293 5.72085 13.0293C8.59824 13.0293 10.6891 15.2914 10.6891 17.5549C10.6891 18.8342 10.4929 19.4732 8.77088 19.4982C7.39269 19.5469 5.72085 19.5233 2.7933 19.5469C2.89216 21.0225 4.12132 22.2532 5.79463 22.2532V22.2517ZM2.81839 17.8249C4.09771 17.8249 6.80245 17.7998 7.83683 17.7261C8.00948 17.701 8.13195 17.6272 8.13195 17.5047C8.13195 16.1516 7.00018 15.2176 5.77102 15.2176C4.1228 15.2176 2.96742 16.5205 2.81986 17.8249" fill="white"/>
<path d="M23.1107 20.2847C23.1107 21.3427 23.1358 22.3756 23.2096 23.4336C23.2096 24.3189 22.5205 24.5653 21.8078 24.5653C20.9962 24.5653 20.7749 23.95 20.6023 22.6707C19.8645 23.95 18.5851 24.6391 16.9871 24.6391C13.7157 24.6391 11.6499 22.1793 11.6499 19.178C11.6499 15.5864 14.1097 13.1016 17.3073 13.1016C18.6855 13.1016 19.9146 13.7169 20.6524 14.8236C20.7011 14.5284 20.7513 14.1345 20.8 13.9131C20.9726 13.4454 21.3164 13.1503 21.8831 13.1503C22.8673 13.1503 23.1624 13.7154 23.1624 14.6509L23.1373 16.5456L23.1122 20.2847H23.1107ZM17.3309 22.3269C19.1503 22.3269 20.5536 20.9487 20.5536 18.8593C20.5536 16.6208 19.0529 15.4153 17.4548 15.4153C15.6841 15.4153 14.3797 16.9159 14.3797 19.1042C14.3797 20.9738 15.6827 22.3269 17.3309 22.3269Z" fill="white"/>
<path d="M32.8257 13.6179C33.2433 13.8142 33.5886 14.0857 33.5886 14.577C33.5886 15.2661 33.2684 15.7324 32.5306 15.7324C31.7928 15.7324 30.9561 15.1673 29.5543 15.1673C28.4226 15.1673 27.4634 15.7088 27.4634 16.544C27.4634 17.4544 28.5701 17.5282 29.8008 17.6994C32.1617 18.0196 33.9575 18.7574 33.9575 21.0194C33.9575 23.2815 32.1366 24.6597 29.2843 24.6597C27.1196 24.6597 24.9062 23.9219 24.9062 23.0601C24.9062 22.371 25.1763 21.7321 25.9642 21.7321C26.8747 21.7321 27.8087 22.4463 29.5307 22.4463C30.6123 22.4463 31.4991 21.9785 31.4991 21.0932C31.4991 20.1592 30.6374 19.9127 29.1131 19.6914C27.1447 19.4214 25.0051 18.9049 25.0051 16.6901C25.0051 14.4752 27.2185 13.0498 29.5307 13.0498C30.9325 13.0498 32.0894 13.2711 32.8272 13.615" fill="white"/>
<path d="M42.9837 14.1843C43.2301 13.569 43.5252 13.1263 44.1892 13.1263C44.902 13.1263 45.6648 13.5941 45.6648 14.233C45.6648 14.6019 45.566 14.9221 45.3948 15.2659C43.7967 18.9313 41.6557 23.6531 39.8363 27.3185C38.8772 29.0656 37.6716 29.9996 36.1709 29.9996C35.0643 29.9996 34.2527 29.6794 34.2527 28.6716C34.2527 27.86 34.6718 27.4173 35.5571 27.4173C36.59 27.4173 36.9589 27.0971 37.6229 25.9418C37.9667 25.3515 38.2869 24.6875 38.7296 23.8258L37.9667 22.2262L34.8916 15.561C34.6216 14.9708 34.474 14.6255 34.474 14.233C34.474 13.5439 35.2605 13.0762 35.9009 13.0762C36.4661 13.0762 36.7376 13.2724 36.9589 13.7402C38.8285 18.2422 39.3936 19.6927 40.1078 21.3158C40.5992 20.2578 41.486 18.0445 42.9852 14.1829" fill="white"/>
<path d="M46.9442 14.282C46.9442 13.4704 47.4356 13.0514 48.3209 13.0514C49.01 13.0514 49.4025 13.4453 49.5014 14.0843L49.5501 14.9445C50.1654 13.6652 51.666 13.0012 52.8952 13.0012C54.567 13.0012 55.749 13.9352 56.2153 15.1659C56.9044 13.9603 58.2811 13.0263 59.8806 13.0012C62.8819 12.9761 64.0624 15.067 64.0624 17.7983V20.2832C64.0624 21.291 64.0373 22.3003 64.0137 23.5059C63.965 24.3676 63.2021 24.5638 62.637 24.5638C61.8741 24.5638 61.309 24.1699 61.309 23.4808C61.334 22.2014 61.4078 20.2581 61.4078 18.2174C61.4078 16.5942 60.9165 15.3636 59.4158 15.3636C58.014 15.3636 56.9811 16.2976 56.9309 18.0196C56.9058 18.9537 56.9058 19.4465 56.9058 20.627V23.1857C56.8807 24.0474 56.4145 24.5638 55.4789 24.5638C54.7662 24.5388 54.2247 24.1699 54.2247 23.4321C54.2498 21.2674 54.2985 20.5547 54.2734 17.9473C54.2247 16.5455 53.6094 15.34 52.2076 15.34C50.3129 15.34 49.6002 16.8407 49.6002 18.9552L49.6253 23.5059C49.6002 24.2687 48.9613 24.5638 48.2235 24.5638C47.5846 24.5638 46.9206 24.2687 46.9206 23.4321C46.9206 23.0632 46.8955 22.8655 46.9206 22.1041L46.9944 18.4151C46.9944 15.2175 46.9457 14.7498 46.9457 14.2835" fill="white"/>
<path d="M72.4997 13.1505C75.6486 13.6182 77.0504 16.2994 77.0504 18.8566C77.0504 22.2268 74.4918 24.6866 71.0729 24.6866C68.0966 24.6866 65.4893 22.4732 65.4893 19.2018C65.4893 15.5365 67.8753 13.0531 71.762 13.0029C72.032 13.0029 72.2784 13.028 72.4997 13.1505ZM71.2706 15.3639C69.401 15.4627 68.1719 16.8645 68.1719 19.2004C68.1719 21.0699 69.6224 22.3242 71.0242 22.3242C72.7713 22.3242 74.3693 20.946 74.3693 18.7577C74.3693 16.9619 73.2626 15.4612 71.2706 15.3639Z" fill="white"/>
<path d="M77.4445 14.2335C77.4682 13.4957 78.231 13.0781 78.895 13.0781C79.6328 13.0781 79.9279 13.5459 80.2231 14.3324C81.0833 16.4484 82.19 19.3257 83.0518 21.4166C83.9858 19.252 85.2902 15.9555 85.9291 14.1848C86.1756 13.5459 86.5681 13.1268 87.1834 13.1268C87.8474 13.1268 88.6103 13.5444 88.6353 14.1848C88.6353 14.6275 88.5365 14.9477 88.3638 15.3417C87.7485 16.6461 86.1992 20.2126 84.7487 23.3113C84.306 24.2217 83.8382 24.5906 83.0016 24.5906C82.1649 24.5906 81.6986 24.1228 81.2309 23.115C79.804 19.8687 78.9186 17.8752 77.8857 15.6132C77.6157 14.9979 77.418 14.6777 77.4431 14.235" fill="white"/>
<path d="M89.6681 8.3294C89.8156 7.34519 90.6523 6.87891 91.4388 6.87891C92.5455 6.87891 93.1121 7.6167 93.1121 8.55074C93.1121 9.68251 92.2754 10.1739 91.2425 10.1739C90.2096 10.1739 89.5456 9.36231 89.6681 8.3294ZM91.2912 13.1014C92.1028 13.1014 92.693 13.3965 92.693 14.6021C92.7181 16.4466 92.6679 18.3412 92.693 20.1857V23.2608C92.7181 24.1712 92.2017 24.5888 91.3163 24.5888C90.5534 24.5888 89.9883 24.2199 89.9883 23.4334V14.3321C90.037 13.4216 90.7025 13.1014 91.2927 13.1014" fill="white"/>
<path d="M100.195 22.2517C101.105 22.2517 101.966 21.9566 102.581 21.5877C102.876 21.415 103.171 21.2675 103.54 21.2675C104.13 21.2675 104.672 21.8828 104.672 22.5468C104.672 23.0146 104.377 23.3834 103.934 23.6786C103.024 24.2688 101.868 24.6628 99.9737 24.6628C96.9237 24.6628 94.5126 22.2281 94.4639 19.2518C94.4639 15.8078 96.9237 13.0293 100.121 13.0293C102.999 13.0293 105.09 15.2914 105.09 17.5549C105.09 18.8342 104.893 19.4732 103.171 19.4982C101.795 19.5469 100.121 19.5233 97.1937 19.5469C97.2926 21.0225 98.5217 22.2532 100.195 22.2532V22.2517ZM97.2188 17.8249C98.4981 17.8249 101.203 17.7998 102.237 17.7261C102.41 17.701 102.532 17.6272 102.532 17.5047C102.532 16.1516 101.401 15.2176 100.171 15.2176C98.5232 15.2176 97.3678 16.5205 97.2203 17.8249" fill="white"/>
<path d="M110.937 0.00585938C110.136 0.00585938 109.488 0.655115 109.488 1.45488V12.9231C109.488 13.7243 110.137 14.3721 110.937 14.3721C111.737 14.3721 112.386 13.7229 112.386 12.9231V1.45635C112.386 0.655115 111.737 0.00733471 110.937 0.00733471" fill="#0161FA"/>
<path d="M118.47 5.74757C118.165 5.74757 117.856 5.84348 117.593 6.04269L110.061 11.7694C109.423 12.2534 109.299 13.1638 109.785 13.7998C110.269 14.4373 111.179 14.5612 111.815 14.0772L119.348 8.35049C119.985 7.8665 120.109 6.95607 119.625 6.31862C119.341 5.94382 118.908 5.74609 118.47 5.74609" fill="#EB2F2A"/>
<path d="M110.943 0.00585938C110.505 0.00585938 110.074 0.203587 109.788 0.578385C109.304 1.21584 109.428 2.12479 110.065 2.60878L117.598 8.33551C118.235 8.8195 119.144 8.69556 119.63 8.05811C120.114 7.42065 119.99 6.5117 119.352 6.02771L111.82 0.300976C111.557 0.101772 111.248 0.00585938 110.943 0.00585938Z" fill="#19A762"/>
<path d="M112.386 1.45197V4.3751L110.059 2.60588C109.683 2.31961 109.487 1.88579 109.487 1.44754C109.487 1.42689 109.487 1.40623 109.488 1.38557C109.488 1.38262 109.488 1.37819 109.488 1.37524C109.492 1.27785 109.507 1.18194 109.531 1.09045C109.532 1.08308 109.535 1.07717 109.537 1.0698C109.541 1.05356 109.546 1.03881 109.55 1.02258C109.553 1.01225 109.557 1.00044 109.56 0.990114C109.565 0.97831 109.568 0.966505 109.572 0.954701C109.578 0.939945 109.584 0.925189 109.59 0.910434C109.593 0.903056 109.596 0.895678 109.599 0.8883C109.636 0.80124 109.681 0.715657 109.737 0.6345C109.739 0.631548 109.742 0.630073 109.743 0.627122C109.755 0.609415 109.767 0.593183 109.78 0.576952C109.783 0.572525 109.786 0.568099 109.791 0.565148C109.804 0.548916 109.817 0.531209 109.83 0.514978C109.836 0.5076 109.844 0.500222 109.85 0.492844C109.86 0.481039 109.87 0.469235 109.882 0.45743C109.889 0.448577 109.898 0.439723 109.907 0.432345C109.916 0.423492 109.925 0.414638 109.935 0.405785C109.974 0.368895 110.013 0.333481 110.056 0.301019C110.062 0.295116 110.069 0.29069 110.077 0.286263C110.09 0.27741 110.102 0.268556 110.115 0.258227C110.123 0.252324 110.131 0.246422 110.14 0.24052C110.152 0.233142 110.165 0.224288 110.177 0.216911C110.187 0.211008 110.198 0.20363 110.208 0.197728C110.218 0.191826 110.23 0.184447 110.241 0.178545C110.257 0.169692 110.275 0.160839 110.291 0.151985C110.297 0.149034 110.301 0.146083 110.307 0.143131C110.331 0.131327 110.356 0.120998 110.381 0.110669C110.406 0.100339 110.429 0.0914862 110.456 0.0826327L110.463 0.0796815C110.487 0.0723036 110.509 0.0649255 110.533 0.0575476L110.543 0.0545963C110.565 0.048694 110.589 0.0427918 110.611 0.0368895C110.614 0.0368895 110.618 0.0354139 110.621 0.0339383C110.643 0.0295115 110.666 0.0250848 110.689 0.020658H110.701C110.723 0.0147557 110.745 0.0118048 110.767 0.00885369C110.772 0.00885369 110.776 0.00885337 110.782 0.00737779C110.803 0.00442663 110.825 0.00295148 110.846 0.0014759C110.851 0.0014759 110.856 0.0014759 110.862 0.0014759C110.884 0.0014759 110.906 0 110.928 0C110.933 0 110.936 0 110.94 0H110.947C110.978 0 111.009 0.00147596 111.04 0.00442712C111.049 0.00442712 111.058 0.00442688 111.068 0.00590246C111.101 0.00885362 111.133 0.0118045 111.166 0.0177068C111.172 0.0177068 111.176 0.0191825 111.182 0.020658C111.212 0.0250848 111.241 0.0324631 111.271 0.0383654C111.276 0.0383654 111.284 0.0413164 111.29 0.042792C111.322 0.0501699 111.355 0.0604987 111.387 0.0708278C111.393 0.0723034 111.399 0.0752547 111.406 0.0767303C111.474 0.098864 111.541 0.128376 111.604 0.160838C111.608 0.162314 111.613 0.165265 111.617 0.166741C111.65 0.182972 111.681 0.202155 111.712 0.221337C111.716 0.224288 111.719 0.227239 111.724 0.228715C111.755 0.249373 111.786 0.270031 111.815 0.292165C112.165 0.556294 112.389 0.975359 112.389 1.44754" fill="#25CBDF"/>
<path d="M119.937 7.20499C119.932 7.50453 119.835 7.80555 119.64 8.0623C119.153 8.70123 118.241 8.82665 117.601 8.33971L116.087 7.18876L117.601 6.0378C117.864 5.83712 118.173 5.74121 118.48 5.74121C118.92 5.74121 119.354 5.93894 119.64 6.31521C119.835 6.57196 119.932 6.87298 119.937 7.17252C119.937 7.17843 119.937 7.18285 119.937 7.18876C119.937 7.19466 119.937 7.19908 119.937 7.20499Z" fill="#FEBE14"/>
<path d="M112.386 12.9251V10.002L110.059 11.7712C109.683 12.0574 109.487 12.4913 109.487 12.9295C109.487 12.9502 109.487 12.9708 109.488 12.9915C109.488 12.9944 109.488 12.9989 109.488 13.0018C109.492 13.0992 109.507 13.1951 109.531 13.2866C109.532 13.294 109.535 13.2999 109.537 13.3073C109.541 13.3235 109.546 13.3382 109.55 13.3545C109.553 13.3648 109.557 13.3766 109.56 13.3869C109.565 13.3987 109.568 13.4105 109.572 13.4223C109.578 13.4371 109.584 13.4519 109.59 13.4666C109.593 13.474 109.596 13.4814 109.599 13.4888C109.636 13.5758 109.681 13.6614 109.737 13.7425C109.739 13.7455 109.742 13.7485 109.743 13.7499C109.755 13.7676 109.767 13.7839 109.78 13.8001C109.783 13.8045 109.786 13.8089 109.791 13.8119C109.804 13.8281 109.817 13.8458 109.83 13.8606C109.836 13.868 109.844 13.8754 109.85 13.8827C109.86 13.8945 109.87 13.9063 109.882 13.9181C109.889 13.927 109.898 13.9358 109.907 13.9432C109.916 13.9521 109.925 13.9609 109.935 13.9698C109.974 14.0067 110.013 14.0421 110.056 14.0731C110.062 14.079 110.069 14.0834 110.077 14.0878C110.09 14.0967 110.102 14.1055 110.115 14.1159C110.123 14.1218 110.131 14.1277 110.14 14.1336C110.152 14.141 110.165 14.1498 110.177 14.1572C110.187 14.1631 110.198 14.1705 110.208 14.1764C110.218 14.1823 110.23 14.1897 110.241 14.1956C110.257 14.2044 110.275 14.2133 110.291 14.2221C110.297 14.2251 110.301 14.228 110.307 14.231C110.331 14.2428 110.356 14.2531 110.381 14.2634C110.406 14.2738 110.429 14.2826 110.456 14.2915L110.463 14.2944C110.487 14.3018 110.509 14.3092 110.533 14.3166L110.543 14.3195C110.565 14.3254 110.589 14.3313 110.611 14.3372C110.614 14.3372 110.618 14.3387 110.621 14.3402C110.643 14.3446 110.666 14.349 110.689 14.3534H110.701C110.723 14.3593 110.745 14.3623 110.767 14.3652C110.772 14.3652 110.776 14.3652 110.782 14.3667C110.803 14.3697 110.825 14.3711 110.846 14.3726C110.851 14.3726 110.856 14.3726 110.862 14.3726C110.884 14.3726 110.906 14.3741 110.928 14.3741C110.933 14.3741 110.936 14.3741 110.94 14.3741H110.947C110.978 14.3741 111.009 14.3726 111.04 14.3697C111.049 14.3697 111.058 14.3697 111.068 14.3682C111.101 14.3652 111.133 14.3623 111.166 14.3564C111.172 14.3564 111.176 14.3549 111.182 14.3534C111.212 14.349 111.241 14.3416 111.271 14.3357C111.276 14.3343 111.284 14.3328 111.29 14.3313C111.322 14.3225 111.355 14.3136 111.387 14.3033C111.393 14.3018 111.399 14.2988 111.406 14.2974C111.474 14.2752 111.541 14.2457 111.604 14.2133C111.608 14.2118 111.613 14.2088 111.617 14.2074C111.65 14.1911 111.681 14.1719 111.712 14.1528C111.716 14.1498 111.719 14.1469 111.724 14.1454C111.755 14.1247 111.786 14.1041 111.815 14.0819C112.165 13.8178 112.389 13.3987 112.389 12.9266" fill="#7A79FD"/>
</svg>
