<svg width="18" height="18" viewBox="0 0 18 18" fill="none" xmlns="http://www.w3.org/2000/svg">
<path d="M11.8572 9.53554L6.14289 9.53554C5.85003 9.53554 5.60718 9.29268 5.60718 8.99983C5.60718 8.70697 5.85003 8.46411 6.14289 8.46411L11.8572 8.46411C12.15 8.46411 12.3929 8.70697 12.3929 8.99983C12.3929 9.29268 12.15 9.53554 11.8572 9.53554Z" fill="#0161FA"/>
<path d="M11.1429 16.6784H6.85719C2.97862 16.6784 1.32147 15.0213 1.32147 11.1427L1.32147 6.857C1.32147 2.97843 2.97862 1.32129 6.85719 1.32129L11.1429 1.32129C15.0215 1.32129 16.6786 2.97843 16.6786 6.857V11.1427C16.6786 15.0213 15.0215 16.6784 11.1429 16.6784ZM6.85719 2.39272C3.56433 2.39272 2.3929 3.56415 2.3929 6.857L2.3929 11.1427C2.3929 14.4356 3.56433 15.607 6.85719 15.607H11.1429C14.4358 15.607 15.6072 14.4356 15.6072 11.1427V6.857C15.6072 3.56415 14.4358 2.39272 11.1429 2.39272L6.85719 2.39272Z" fill="#0161FA"/>
</svg>
