<svg width="49" height="48" viewBox="0 0 49 48" fill="none" xmlns="http://www.w3.org/2000/svg">
<path d="M24.5 45.5C12.64 45.5 3 35.86 3 24C3 12.14 12.64 2.5 24.5 2.5C36.36 2.5 46 12.14 46 24C46 26.8 45.48 29.48 44.44 32C44.26 32.42 43.92 32.74 43.48 32.86C43.04 33 42.58 32.92 42.2 32.66C39.84 31.04 36.66 31.16 34.42 32.92C32.88 34.14 31.98 36 31.98 37.98C31.98 39.16 32.3 40.3199 32.92 41.3199C32.98 41.4199 33.02 41.48 33.08 41.54C33.4 41.9 33.52 42.4 33.42 42.88C33.32 43.36 32.98 43.74 32.52 43.92C29.98 44.98 27.28 45.5 24.5 45.5ZM24.5 5.5C14.3 5.5 6 13.8 6 24C6 34.2 14.3 42.5 24.5 42.5C26.3 42.5 28.06 42.24 29.76 41.72C29.26 40.56 29 39.3 29 38C29 35.08 30.3 32.38 32.56 30.58C35.28 28.42 39.1 27.92 42.22 29.26C42.72 27.58 42.98 25.8 42.98 23.98C43 13.8 34.7 5.5 24.5 5.5Z" fill="#0161FA"/>
<path d="M22.2598 32.1412C21.4798 32.1412 20.7397 31.9611 20.0997 31.5811C18.6197 30.7211 17.7598 28.9812 17.7598 26.7812V21.2211C17.7598 19.0211 18.6197 17.2812 20.0997 16.4212C21.5997 15.5612 23.5398 15.7012 25.4398 16.8012L30.2397 19.5811C32.1397 20.6811 33.2197 22.3012 33.2197 24.0012C33.2197 25.7012 32.1397 27.3412 30.2397 28.4212L25.4398 31.2011C24.3598 31.8211 23.2798 32.1412 22.2598 32.1412ZM22.2798 18.8611C22.0198 18.8611 21.7997 18.9212 21.5997 19.0212C21.0597 19.3412 20.7598 20.1411 20.7598 21.2211V26.7812C20.7598 27.8612 21.0597 28.6811 21.5997 28.9811C22.1397 29.2811 22.9798 29.1611 23.9398 28.6011L28.7397 25.8211C29.6797 25.2811 30.2197 24.6011 30.2197 23.9811C30.2197 23.3611 29.6797 22.7012 28.7397 22.1412L23.9398 19.3611C23.3198 19.0411 22.7598 18.8611 22.2798 18.8611Z" fill="#0161FA"/>
<path d="M38.5 47.5C35.18 47.5 32.06 45.74 30.38 42.88C29.48 41.44 29 39.74 29 38C29 35.08 30.3 32.38 32.56 30.58C34.24 29.24 36.36 28.5 38.5 28.5C43.74 28.5 48 32.76 48 38C48 39.74 47.52 41.44 46.62 42.9C46.12 43.74 45.48 44.5 44.72 45.14C43.06 46.66 40.84 47.5 38.5 47.5ZM38.5 31.5C37.02 31.5 35.62 31.9999 34.44 32.9399C32.9 34.1599 32 36.02 32 38C32 39.18 32.32 40.34 32.94 41.34C34.1 43.3 36.24 44.5 38.5 44.5C40.08 44.5 41.6 43.92 42.76 42.88C43.28 42.44 43.72 41.92 44.04 41.36C44.68 40.34 45 39.18 45 38C45 34.42 42.08 31.5 38.5 31.5Z" fill="#0161FA"/>
<path d="M41.4995 39.4609H35.5195C34.6995 39.4609 34.0195 38.7809 34.0195 37.9609C34.0195 37.1409 34.6995 36.4609 35.5195 36.4609H41.4995C42.3195 36.4609 42.9995 37.1409 42.9995 37.9609C42.9995 38.7809 42.3195 39.4609 41.4995 39.4609Z" fill="#0161FA"/>
<path d="M38.5 42.519C37.68 42.519 37 41.839 37 41.019V35.0391C37 34.2191 37.68 33.5391 38.5 33.5391C39.32 33.5391 40 34.2191 40 35.0391V41.019C40 41.859 39.32 42.519 38.5 42.519Z" fill="#0161FA"/>
</svg>
