<svg width="70" height="59" viewBox="0 0 70 59" fill="none" xmlns="http://www.w3.org/2000/svg">
<path d="M0 59V40.8706C0 35.8347 0.889119 30.7457 2.66735 25.6038C4.49365 20.4088 6.84861 15.5849 9.73223 11.1321C12.6639 6.62623 15.6917 2.91554 18.8157 0L33.8105 9.06469C31.2152 13.7296 29.1486 18.6065 27.6107 23.6954C26.0728 28.7313 25.3278 34.4299 25.3759 40.7911V59H0ZM36.1895 59V40.8706C36.1895 35.8347 37.0786 30.7457 38.8568 25.6038C40.6831 20.4088 43.0381 15.5849 45.9217 11.1321C48.8534 6.62623 51.8812 2.91554 55.0051 0L70 9.06469C67.4047 13.7296 65.3381 18.6065 63.8002 23.6954C62.2623 28.7313 61.5173 34.4299 61.5654 40.7911V59H36.1895Z" fill="#F4F4F4"/>
</svg>
