<svg width="33" height="45" viewBox="0 0 33 45" fill="none" xmlns="http://www.w3.org/2000/svg">
<path d="M4.58046 0.0185547C2.05025 0.0185547 0.00463867 2.05121 0.00463867 4.55506V40.4591C0.00463867 42.9676 2.05491 44.9956 4.58046 44.9956C7.10601 44.9956 9.15628 42.9629 9.15628 40.4591V4.55968C9.15628 2.05121 7.10601 0.0231736 4.58046 0.0231736" fill="#0161FA"/>
<path d="M28.3684 17.9934C27.4039 17.9934 26.43 18.2937 25.6006 18.9173L1.81288 36.8462C-0.200107 38.3615 -0.591519 41.2118 0.941519 43.2029C2.4699 45.1986 5.34493 45.5866 7.35326 44.0714L31.141 26.1425C33.1539 24.6272 33.5454 21.7769 32.017 19.7812C31.1177 18.6078 29.7524 17.9888 28.3684 17.9888" fill="#EB2F2A"/>
<path d="M4.5999 0.0185547C3.21597 0.0185547 1.85534 0.63759 0.951357 1.81098C-0.577021 3.80668 -0.185605 6.65239 1.82738 8.16764L25.6151 26.0965C27.6281 27.6118 30.4985 27.2237 32.0315 25.2281C33.5599 23.2324 33.1685 20.3866 31.1555 18.8714L7.36776 0.942487C6.53833 0.318833 5.56446 0.0185547 4.5999 0.0185547Z" fill="#19A762"/>
<path d="M9.1563 4.54575V13.6973L1.80796 8.15832C0.619741 7.26211 0 5.90393 0 4.53189C0 4.46721 4.55058e-06 4.40254 0.00466424 4.33786C0.00466424 4.32862 0.00466424 4.31476 0.00466424 4.30553C0.0186433 4.00063 0.0652584 3.70035 0.139813 3.41393C0.144473 3.39083 0.153782 3.37235 0.158442 3.34926C0.172421 3.29844 0.186413 3.25224 0.200392 3.20143C0.209711 3.16909 0.223665 3.13213 0.232984 3.09979C0.246964 3.06284 0.256291 3.02588 0.27027 2.98892C0.288909 2.94273 0.307545 2.89653 0.326184 2.85033C0.335503 2.82723 0.344822 2.80414 0.354141 2.78104C0.470633 2.50848 0.615085 2.24054 0.792153 1.98645C0.796813 1.97722 0.80615 1.9726 0.81081 1.96336C0.848087 1.90792 0.885365 1.8571 0.927302 1.80629C0.936621 1.79243 0.945944 1.77857 0.959923 1.76933C1.00186 1.71852 1.04378 1.66308 1.08572 1.61226C1.10435 1.58916 1.12766 1.56607 1.14629 1.54297C1.17891 1.50601 1.21154 1.46905 1.24882 1.4321C1.27212 1.40438 1.30007 1.37666 1.32803 1.35356C1.35599 1.32584 1.38395 1.29813 1.41656 1.27041C1.53772 1.15492 1.66353 1.04404 1.79866 0.942412C1.8173 0.923933 1.84058 0.910075 1.86388 0.896216C1.90581 0.868498 1.9431 0.840779 1.98503 0.808441C2.00833 0.789962 2.03631 0.771484 2.06427 0.753006C2.10155 0.729907 2.14348 0.702189 2.18076 0.679091C2.21338 0.660612 2.24598 0.637514 2.27859 0.619035C2.31121 0.600556 2.34851 0.577457 2.38112 0.558979C2.43238 0.531261 2.48828 0.503544 2.53954 0.475826C2.55818 0.466587 2.57218 0.457347 2.59081 0.448108C2.66537 0.411151 2.74458 0.378812 2.8238 0.346475C2.90301 0.314137 2.97755 0.28642 3.06142 0.258702L3.08474 0.249462C3.1593 0.226364 3.22918 0.203265 3.30373 0.180167L3.33635 0.170927C3.40625 0.152448 3.48081 0.13397 3.55071 0.115492C3.56003 0.115492 3.57398 0.110872 3.5833 0.106252C3.6532 0.092393 3.7231 0.078534 3.79766 0.064675H3.83494C3.90484 0.0461963 3.97474 0.0369579 4.04464 0.0277186C4.05861 0.0277186 4.07258 0.0277176 4.09122 0.023098C4.15646 0.0138586 4.22635 0.00924031 4.29158 0.00462065C4.31022 0.00462065 4.3242 0.00462065 4.34283 0.00462065C4.41273 0.00462065 4.48263 0 4.55253 0C4.5665 0 4.57583 0 4.58981 0H4.6131C4.71096 0 4.80881 0.00462086 4.90667 0.0138602C4.93463 0.0138602 4.96258 0.0138594 4.9952 0.0184791C5.09772 0.0277184 5.20022 0.0369568 5.30273 0.0554355C5.32137 0.0554355 5.33537 0.0600553 5.35401 0.064675C5.4472 0.078534 5.54038 0.101634 5.63358 0.120112C5.65222 0.120112 5.67552 0.129351 5.69416 0.133971C5.79667 0.157069 5.89917 0.189406 6.00168 0.221744C6.02032 0.226363 6.03896 0.235603 6.06226 0.240223C6.27661 0.309518 6.48631 0.401911 6.68667 0.503543C6.70065 0.508163 6.71461 0.517403 6.72859 0.522022C6.83111 0.572839 6.92897 0.632894 7.02682 0.692949C7.0408 0.702189 7.05013 0.711428 7.06411 0.716047C7.16196 0.780723 7.25981 0.845398 7.353 0.914693C8.45735 1.74161 9.16563 3.0536 9.16563 4.53189" fill="#25CBDF"/>
<path d="M32.9999 22.5578C32.9859 23.4956 32.6784 24.438 32.0633 25.2418C30.5256 27.2421 27.6459 27.6348 25.6236 26.1103L20.8428 22.507L25.6236 18.9037C26.453 18.2754 27.4316 17.9751 28.4008 17.9751C29.7894 17.9751 31.1593 18.5941 32.0633 19.7721C32.6784 20.576 32.9859 21.5184 32.9999 22.4562C32.9999 22.4747 32.9999 22.4885 32.9999 22.507C32.9999 22.5255 32.9999 22.5393 32.9999 22.5578Z" fill="#FEBE14"/>
<path d="M9.1563 40.4636V31.312L1.80796 36.851C0.619741 37.7472 0 39.1054 0 40.4774C0 40.5421 4.55058e-06 40.6068 0.00466424 40.6714C0.00466424 40.6807 0.00466424 40.6945 0.00466424 40.7038C0.0186433 41.0087 0.0652584 41.309 0.139813 41.5954C0.144473 41.6185 0.153782 41.637 0.158442 41.6601C0.172421 41.7109 0.186413 41.7571 0.200392 41.8079C0.209711 41.8402 0.223665 41.8772 0.232984 41.9095C0.246964 41.9465 0.256291 41.9834 0.27027 42.0204C0.288909 42.0666 0.307545 42.1128 0.326184 42.159C0.335503 42.1821 0.344822 42.2052 0.354141 42.2283C0.470633 42.5008 0.615085 42.7688 0.792153 43.0229C0.796813 43.0321 0.80615 43.0413 0.81081 43.046C0.848087 43.1014 0.885365 43.1522 0.927302 43.203C0.936621 43.2169 0.945944 43.2307 0.959923 43.24C1.00186 43.2908 1.04378 43.3462 1.08572 43.3924C1.10435 43.4155 1.12766 43.4386 1.14629 43.4617C1.17891 43.4987 1.21154 43.5356 1.24882 43.5726C1.27212 43.6003 1.30007 43.628 1.32803 43.6511C1.35599 43.6788 1.38395 43.7066 1.41656 43.7343C1.53772 43.8498 1.66353 43.9606 1.79866 44.0577C1.8173 44.0761 1.84058 44.09 1.86388 44.1039C1.90581 44.1316 1.9431 44.1593 1.98503 44.1916C2.00833 44.2101 2.03631 44.2286 2.06427 44.2471C2.10155 44.2702 2.14348 44.2979 2.18076 44.321C2.21338 44.3395 2.24598 44.3626 2.27859 44.381C2.31121 44.3995 2.34851 44.4226 2.38112 44.4411C2.43238 44.4688 2.48828 44.4965 2.53954 44.5242C2.55818 44.5335 2.57218 44.5427 2.59081 44.552C2.66537 44.5889 2.74458 44.6213 2.8238 44.6536C2.90301 44.6859 2.97755 44.7136 3.06142 44.7414L3.08474 44.7506C3.1593 44.7737 3.22918 44.7968 3.30373 44.8199L3.33635 44.8291C3.40625 44.8476 3.48081 44.8661 3.55071 44.8846C3.56003 44.8846 3.57398 44.8892 3.5833 44.8938C3.6532 44.9077 3.7231 44.9215 3.79766 44.9354H3.83494C3.90484 44.9539 3.97474 44.9631 4.04464 44.9724C4.05861 44.9724 4.07258 44.9724 4.09122 44.977C4.15646 44.9862 4.22635 44.9908 4.29158 44.9955C4.31022 44.9955 4.3242 44.9955 4.34283 44.9955C4.41273 44.9955 4.48263 45.0001 4.55253 45.0001C4.5665 45.0001 4.57583 45.0001 4.58981 45.0001H4.6131C4.71096 45.0001 4.80881 44.9954 4.90667 44.9862C4.93463 44.9862 4.96258 44.9862 4.9952 44.9816C5.09772 44.9724 5.20022 44.9631 5.30273 44.9446C5.32137 44.9446 5.33537 44.94 5.35401 44.9354C5.4472 44.9215 5.54038 44.8984 5.63358 44.88C5.65222 44.8753 5.67552 44.8707 5.69416 44.8661C5.79667 44.8384 5.89917 44.8107 6.00168 44.7783C6.02032 44.7737 6.03896 44.7645 6.06226 44.7599C6.27661 44.6906 6.48631 44.5982 6.68667 44.4965C6.70065 44.4919 6.71461 44.4827 6.72859 44.4781C6.83111 44.4272 6.92897 44.3672 7.02682 44.3071C7.0408 44.2979 7.05013 44.2886 7.06411 44.284C7.16196 44.2193 7.25981 44.1547 7.353 44.0854C8.45735 43.2585 9.16563 41.9465 9.16563 40.4682" fill="#7A79FD"/>
</svg>
