<svg width="964" height="964" viewBox="0 0 964 964" fill="none" xmlns="http://www.w3.org/2000/svg">
<path d="M481.827 456.257C495.923 456.257 507.399 467.725 507.399 481.829C507.399 495.934 495.931 507.402 481.827 507.402C467.722 507.402 456.254 495.934 456.254 481.829C456.254 467.725 467.722 456.257 481.827 456.257ZM481.827 455.381C467.223 455.381 455.378 467.225 455.378 481.829C455.378 496.433 467.223 508.278 481.827 508.278C496.431 508.278 508.275 496.433 508.275 481.829C508.275 467.225 496.431 455.381 481.827 455.381Z" fill="url(#paint0_linear_1953_24600)"/>
<path d="M481.862 428.845C490.097 428.845 498.043 430.72 505.472 434.434C518.131 440.751 527.575 451.623 532.061 465.044C536.546 478.465 535.539 492.824 529.222 505.483C524.745 514.463 517.859 521.945 509.318 527.113C501.004 532.151 491.481 534.814 481.783 534.814C473.548 534.814 465.602 532.939 458.173 529.225C432.04 516.18 421.387 484.309 434.423 458.176C438.899 449.196 445.785 441.714 454.327 436.545C462.641 431.508 472.164 428.845 481.862 428.845ZM481.862 427.969C462.098 427.969 443.061 438.893 433.634 457.781C420.353 484.388 431.164 516.723 457.77 530.005C465.488 533.859 473.688 535.681 481.774 535.681C501.538 535.681 520.575 524.757 530.002 505.869C543.283 479.263 532.472 446.927 505.866 433.646C498.148 429.791 489.948 427.969 481.862 427.969Z" fill="url(#paint1_linear_1953_24600)"/>
<path d="M481.73 383.92C488.932 383.92 496.177 384.726 503.264 386.32C528.775 392.05 550.528 407.372 564.519 429.458C578.51 451.544 583.056 477.765 577.327 503.276C572.43 525.099 560.086 544.74 542.582 558.582C525.324 572.222 503.781 579.739 481.914 579.739C474.713 579.739 467.468 578.933 460.381 577.339C434.869 571.609 413.117 556.287 399.126 534.201C385.135 512.115 380.588 485.894 386.318 460.383C391.215 438.56 403.559 418.919 421.063 405.077C438.321 391.437 459.864 383.92 481.73 383.92ZM481.73 383.044C436.543 383.044 395.77 414.25 385.459 460.191C373.509 513.412 406.967 566.239 460.188 578.188C467.468 579.827 474.757 580.606 481.914 580.606C527.102 580.606 567.874 549.401 578.186 503.46C590.135 450.238 556.678 397.411 503.457 385.462C496.177 383.824 488.888 383.044 481.73 383.044Z" fill="url(#paint2_linear_1953_24600)"/>
<path d="M481.643 336.866C488.055 336.866 494.547 337.296 500.942 338.145C539.323 343.253 573.411 362.999 596.942 393.749C620.473 424.5 630.609 462.565 625.502 500.945C620.841 535.979 603.6 568.035 576.95 591.189C550.537 614.142 516.825 626.784 482.01 626.784C475.598 626.784 469.106 626.355 462.711 625.505C424.33 620.397 390.242 600.651 366.711 569.901C343.189 539.151 333.044 501.086 338.151 462.705C342.812 427.671 360.053 395.616 386.703 372.461C413.116 349.508 446.828 336.866 481.643 336.866ZM481.643 335.99C409.656 335.99 347.034 389.29 337.284 462.591C326.657 542.418 382.769 615.745 462.597 626.372C469.124 627.239 475.606 627.66 482.01 627.66C553.997 627.66 616.618 574.36 626.369 501.059C636.996 421.232 580.884 347.905 501.056 337.278C494.53 336.411 488.047 335.99 481.643 335.99Z" fill="url(#paint3_linear_1953_24600)"/>
<path d="M481.599 289.226C487.223 289.226 492.935 289.471 498.577 289.97C524.474 292.231 549.161 299.502 571.939 311.565C593.937 323.226 613.254 338.846 629.33 358.006C645.415 377.166 657.452 398.892 665.118 422.581C673.055 447.111 675.937 472.675 673.677 498.58C669.463 546.878 647.421 591.452 611.625 624.103C576.039 656.553 530.019 674.425 482.046 674.425C476.421 674.425 470.709 674.179 465.067 673.68C439.171 671.42 414.483 664.148 391.705 652.085C369.707 640.424 350.39 624.804 334.314 605.644C318.229 586.485 306.192 564.758 298.527 541.069C290.589 516.539 287.707 490.976 289.967 465.07C294.181 416.773 316.223 372.198 352.019 339.547C387.605 307.097 433.625 289.226 481.599 289.226ZM481.599 288.35C382.366 288.35 297.887 364.279 289.091 464.991C279.796 571.434 358.546 665.252 464.988 674.547C470.709 675.047 476.404 675.292 482.037 675.292C581.269 675.292 665.749 599.363 674.544 498.65C683.839 392.208 605.089 298.389 498.647 289.094C492.926 288.595 487.232 288.35 481.599 288.35Z" fill="url(#paint4_linear_1953_24600)"/>
<path d="M481.599 241.357C486.435 241.357 491.349 241.506 496.194 241.796C528.6 243.732 559.657 251.967 588.497 266.255C616.356 280.053 640.991 298.898 661.719 322.262C682.446 345.627 698.216 372.33 708.588 401.643C719.329 431.981 723.797 463.8 721.861 496.206C718.173 557.785 691.382 614.94 646.431 657.131C601.655 699.156 543.283 722.302 482.054 722.302C477.218 722.302 472.304 722.153 467.459 721.864C435.053 719.928 403.997 711.693 375.156 697.404C347.297 683.606 322.662 664.762 301.935 641.397C281.207 618.032 265.437 591.33 255.065 562.016C244.324 531.678 239.856 499.859 241.792 467.453C245.481 405.875 272.271 348.72 317.222 306.52C361.998 264.494 420.37 241.349 481.599 241.349M481.599 240.473C354.902 240.473 248.591 339.249 240.916 467.392C232.953 600.441 334.349 714.759 467.398 722.723C472.304 723.02 477.201 723.161 482.046 723.161C608.743 723.161 715.054 624.384 722.728 496.241C730.692 363.192 629.295 248.874 496.247 240.911C491.341 240.613 486.443 240.473 481.599 240.473Z" fill="url(#paint5_linear_1953_24600)"/>
<path d="M481.617 193.358C485.655 193.358 489.764 193.445 493.811 193.612C532.718 195.232 570.152 204.422 605.055 220.927C638.775 236.872 668.727 258.931 694.098 286.501C719.469 314.071 738.971 345.759 752.059 380.679C765.612 416.834 771.666 454.899 770.045 493.805C766.935 568.674 735.414 638.418 681.299 690.211C654.973 715.407 624.6 735.154 591.02 748.899C556.363 763.092 519.699 770.293 482.046 770.293C478.007 770.293 473.898 770.205 469.851 770.039C430.945 768.418 393.51 759.228 358.608 742.723C324.888 726.779 294.935 704.719 269.564 677.149C244.193 649.579 224.692 617.892 211.603 582.972C198.05 546.816 191.997 508.751 193.618 469.845C196.728 394.976 228.249 325.232 282.363 273.439C308.689 248.243 339.063 228.497 372.642 214.751C407.3 200.559 443.963 193.358 481.617 193.358ZM481.617 192.481C327.358 192.481 199.207 314.238 192.733 469.81C186.092 629.474 310.143 764.283 469.798 770.924C473.89 771.09 477.972 771.178 482.028 771.178C636.287 771.178 764.438 649.422 770.912 493.849C777.553 334.186 653.501 199.376 493.846 192.735C489.755 192.569 485.673 192.481 481.617 192.481Z" fill="url(#paint6_linear_1953_24600)"/>
<path d="M481.643 145.288C484.884 145.288 488.169 145.331 491.411 145.428C536.826 146.724 580.63 156.869 621.595 175.6C661.167 193.682 696.455 218.965 726.469 250.74C756.483 282.515 779.717 319.179 795.512 359.723C811.868 401.696 819.508 446.007 818.211 491.414C816.941 536.032 807.111 579.126 788.994 619.504C771.499 658.498 747.004 693.435 716.184 723.336C685.408 753.201 649.796 776.618 610.329 792.948C569.565 809.812 526.384 818.363 481.993 818.363C478.752 818.363 475.467 818.319 472.225 818.223C426.81 816.926 383.006 806.781 342.041 788.051C302.469 769.969 267.181 744.686 237.167 712.911C207.153 681.135 183.919 644.472 168.124 603.927C151.768 561.955 144.128 517.643 145.425 472.237C146.695 427.619 156.525 384.525 174.642 344.147C192.137 305.153 216.632 270.215 247.452 240.315C278.228 210.45 313.84 187.032 353.307 170.702C394.071 153.838 437.252 145.288 481.643 145.288ZM481.643 144.412C299.753 144.412 149.77 289.208 144.549 472.21C139.24 658.48 285.938 813.79 472.208 819.099C475.484 819.195 478.752 819.239 482.002 819.239C663.891 819.239 813.875 674.442 819.096 491.44C824.405 305.17 677.707 149.861 491.437 144.552C488.161 144.455 484.893 144.412 481.643 144.412Z" fill="url(#paint7_linear_1953_24600)"/>
<path d="M481.678 97.1739C484.113 97.1739 486.584 97.2002 489.019 97.244C540.935 98.2164 591.107 109.325 638.152 130.263C683.585 150.491 724.191 178.99 758.857 214.97C793.514 250.95 820.48 292.599 838.991 338.759C858.16 386.548 867.385 437.098 866.412 489.022C865.448 540.342 854.576 589.989 834.085 636.57C814.295 681.565 786.383 721.908 751.121 756.477C715.886 791.021 675.035 818.118 629.69 837.023C582.811 856.568 533.112 866.477 481.967 866.477C479.531 866.477 477.061 866.45 474.625 866.406C422.709 865.434 372.537 854.326 325.492 833.387C280.059 813.159 239.453 784.661 204.787 748.68C170.13 712.7 143.164 671.052 124.653 624.892C105.485 577.102 96.2597 526.553 97.2321 474.628C98.1958 423.308 109.068 373.661 129.55 327.081C149.341 282.086 177.252 241.743 212.514 207.173C247.75 172.63 288.601 145.533 333.946 126.627C380.824 107.082 430.524 97.1739 481.669 97.1739M481.669 96.2979C272.104 96.2979 100.298 264.188 96.3561 474.611C92.3699 687.496 261.714 863.296 474.599 867.274C477.052 867.318 479.505 867.344 481.958 867.344C691.522 867.344 863.328 699.454 867.271 489.031C871.257 276.146 701.913 100.345 489.028 96.3679C486.575 96.3241 484.122 96.2979 481.669 96.2979Z" fill="url(#paint8_linear_1953_24600)"/>
<path d="M481.721 49.0338C483.351 49.0338 484.989 49.0425 486.619 49.0601C545.044 49.7084 601.585 61.7806 654.693 84.9351C705.986 107.301 751.919 139.024 791.219 179.209C830.52 219.394 861.217 266.019 882.435 317.794C904.407 371.401 915.227 428.197 914.578 486.622C913.939 544.644 902.016 600.835 879.159 653.635C857.082 704.631 825.754 750.389 786.05 789.628C746.364 828.849 700.266 859.634 649.042 881.116C596.048 903.341 539.822 914.608 481.914 914.608C480.285 914.608 478.646 914.599 477.017 914.581C418.592 913.933 362.05 901.861 308.943 878.706C257.649 856.34 211.717 824.618 172.416 784.433C133.116 744.247 102.418 697.623 81.2001 645.847C59.2282 592.241 48.4088 535.445 49.0571 477.02C49.6966 418.998 61.6199 362.807 84.4766 310.006C106.554 259.01 137.882 213.253 177.585 174.014C217.271 134.792 263.37 104.007 314.594 82.5259C367.587 60.3 423.813 49.0338 481.721 49.0338ZM481.721 48.1577C244.464 48.1577 50.818 239.158 48.181 477.011C45.5265 716.502 237.517 912.803 477.008 915.458C478.646 915.475 480.285 915.484 481.914 915.484C719.171 915.484 912.818 724.483 915.455 486.63C918.109 247.139 726.118 50.8385 486.627 48.184C484.989 48.1665 483.351 48.1577 481.721 48.1577Z" fill="url(#paint9_linear_1953_24600)"/>
<path d="M481.774 0.876069C482.58 0.876069 483.412 0.876069 484.227 0.876069C549.153 1.20021 612.072 14.2274 671.242 39.6071C699.679 51.802 727.091 66.8616 752.716 84.3567C778.096 101.685 801.942 121.563 823.599 143.439C845.255 165.314 864.897 189.354 881.971 214.909C899.212 240.709 913.992 268.27 925.906 296.821C950.69 356.236 963.087 419.287 962.762 484.212C962.438 548.945 949.49 611.689 924.259 670.701C912.134 699.068 897.162 726.419 879.764 752C862.531 777.336 842.758 801.148 821.006 822.796C799.253 844.434 775.336 864.076 749.913 881.177C724.253 898.435 696.832 913.258 668.412 925.234C609.304 950.141 546.542 962.765 481.871 962.765C481.065 962.765 480.232 962.765 479.418 962.765C414.492 962.441 351.573 949.414 292.403 924.034C263.966 911.839 236.554 896.78 210.929 879.285C185.549 861.956 161.702 842.078 140.046 820.202C118.389 798.327 98.7479 774.288 81.6733 748.733C64.4323 722.932 49.653 695.371 37.7385 666.82C12.9545 607.405 0.558086 544.354 0.882232 479.429C1.20638 414.696 14.1547 351.952 39.3855 292.94C51.5103 264.573 66.4823 237.222 83.881 211.641C101.113 186.305 120.886 162.493 142.639 140.846C164.392 119.207 188.308 99.5653 213.732 82.4644C239.392 65.2058 266.813 50.3827 295.233 38.4069C354.341 13.5002 417.103 0.876069 481.774 0.876069ZM481.774 0C216.781 0 1.32903 214.129 0.00616251 479.42C-1.32546 745.517 213.32 962.318 479.418 963.641C480.232 963.641 481.065 963.641 481.871 963.641C746.855 963.641 962.316 749.512 963.639 484.221C964.97 218.124 750.324 1.32286 484.227 0C483.412 0 482.58 0 481.774 0Z" fill="url(#paint10_linear_1953_24600)"/>
<defs>
<linearGradient id="paint0_linear_1953_24600" x1="455.378" y1="481.821" x2="508.266" y2="481.821" gradientUnits="userSpaceOnUse">
<stop stop-color="#2961F4"/>
<stop offset="1" stop-color="#5DC9DC"/>
</linearGradient>
<linearGradient id="paint1_linear_1953_24600" x1="427.966" y1="481.829" x2="535.679" y2="481.829" gradientUnits="userSpaceOnUse">
<stop stop-color="#3C6FF5"/>
<stop offset="1" stop-color="#6CCEDF"/>
</linearGradient>
<linearGradient id="paint2_linear_1953_24600" x1="383.041" y1="481.83" x2="580.603" y2="481.83" gradientUnits="userSpaceOnUse">
<stop stop-color="#507EF6"/>
<stop offset="1" stop-color="#7AD3E2"/>
</linearGradient>
<linearGradient id="paint3_linear_1953_24600" x1="335.987" y1="481.821" x2="627.657" y2="481.821" gradientUnits="userSpaceOnUse">
<stop stop-color="#638CF7"/>
<stop offset="1" stop-color="#89D8E6"/>
</linearGradient>
<linearGradient id="paint4_linear_1953_24600" x1="288.347" y1="481.821" x2="675.298" y2="481.821" gradientUnits="userSpaceOnUse">
<stop stop-color="#779AF8"/>
<stop offset="1" stop-color="#98DDE9"/>
</linearGradient>
<linearGradient id="paint5_linear_1953_24600" x1="240.478" y1="481.83" x2="723.166" y2="481.83" gradientUnits="userSpaceOnUse">
<stop stop-color="#8AA9F9"/>
<stop offset="1" stop-color="#A7E2EC"/>
</linearGradient>
<linearGradient id="paint6_linear_1953_24600" x1="192.479" y1="481.83" x2="771.166" y2="481.83" gradientUnits="userSpaceOnUse">
<stop stop-color="#9EB7FA"/>
<stop offset="1" stop-color="#B5E6EF"/>
</linearGradient>
<linearGradient id="paint7_linear_1953_24600" x1="144.409" y1="481.83" x2="819.236" y2="481.83" gradientUnits="userSpaceOnUse">
<stop stop-color="#B1C6FB"/>
<stop offset="1" stop-color="#C4EBF2"/>
</linearGradient>
<linearGradient id="paint8_linear_1953_24600" x1="96.2947" y1="481.83" x2="867.35" y2="481.83" gradientUnits="userSpaceOnUse">
<stop stop-color="#C5D4FC"/>
<stop offset="1" stop-color="#D3F0F5"/>
</linearGradient>
<linearGradient id="paint9_linear_1953_24600" x1="48.1547" y1="481.83" x2="915.49" y2="481.83" gradientUnits="userSpaceOnUse">
<stop stop-color="#D8E2FD"/>
<stop offset="1" stop-color="#E2F5F9"/>
</linearGradient>
<linearGradient id="paint10_linear_1953_24600" x1="-0.00259818" y1="481.821" x2="963.647" y2="481.821" gradientUnits="userSpaceOnUse">
<stop stop-color="#ECF1FE"/>
<stop offset="1" stop-color="#F0FAFC"/>
</linearGradient>
</defs>
</svg>
