<svg width="18" height="18" viewBox="0 0 18 18" fill="none" xmlns="http://www.w3.org/2000/svg">
<path d="M12.5712 3.28613L5.42836 3.28613C3.2855 3.28613 1.85693 4.7147 1.85693 6.85756L1.85693 11.1433C1.85693 13.2861 3.2855 14.7147 5.42836 14.7147L12.5712 14.7147C14.7141 14.7147 16.1426 13.2861 16.1426 11.1433V6.85756C16.1426 4.7147 14.7141 3.28613 12.5712 3.28613ZM10.3498 9.73613L8.58549 10.7933C7.87121 11.2219 7.28549 10.8933 7.28549 10.0576V7.93614C7.28549 7.10043 7.87121 6.77186 8.58549 7.20043L10.3498 8.25756C11.0284 8.67184 11.0284 9.32899 10.3498 9.73613Z" fill="white"/>
</svg>
